<svg width="1050" height="724" viewBox="0 0 1050 724" fill="none" xmlns="http://www.w3.org/2000/svg">
<g opacity="0.83">
<path d="M729.387 62.6593C723.858 71.9068 716.276 79.7945 711.079 89.2838C696.76 115.364 619.271 232.682 398.917 197.837C151.526 158.731 -5.4157 256.435 0.142972 420.293C8.81329 669.735 436.65 789.772 760.654 686.598C1084.66 583.424 1096.29 174.839 990.251 65.6814C899.712 -27.5801 775.578 -15.0687 729.387 62.6593Z" fill="#242424"/>
</g>
<path d="M930.456 135.289H789.254C785.382 135.282 781.671 133.741 778.936 131.003C776.201 128.266 774.664 124.556 774.664 120.688V45.8439C774.664 41.9781 776.201 38.2705 778.938 35.5369C781.674 32.8033 785.385 31.2676 789.254 31.2676H930.456C934.328 31.2676 938.042 32.8025 940.782 35.5354C943.522 38.2683 945.064 41.9758 945.071 45.8439V120.688C945.064 124.558 943.523 128.268 940.783 131.005C938.044 133.742 934.33 135.282 930.456 135.289ZM789.254 33.8253C786.063 33.8253 783.004 35.0916 780.748 37.3455C778.492 39.5995 777.224 42.6564 777.224 45.8439V120.688C777.224 123.875 778.492 126.932 780.748 129.186C783.004 131.44 786.063 132.706 789.254 132.706H930.456C933.649 132.706 936.711 131.441 938.971 129.188C941.231 126.934 942.504 123.877 942.511 120.688V45.8439C942.504 42.6541 941.231 39.5973 938.971 37.344C936.711 35.0908 933.649 33.8253 930.456 33.8253H789.254Z" fill="#FFAF45"/>
<path d="M943.78 62.7795H775.958C775.766 62.8344 775.563 62.8439 775.367 62.8073C775.17 62.7708 774.985 62.6891 774.825 62.5688C774.665 62.4484 774.535 62.2927 774.446 62.1138C774.357 61.9349 774.311 61.7377 774.311 61.5379C774.311 61.338 774.357 61.1408 774.446 60.9619C774.535 60.783 774.665 60.6273 774.825 60.5069C774.985 60.3866 775.17 60.3049 775.367 60.2684C775.563 60.2318 775.766 60.2414 775.958 60.2963H943.78C943.972 60.2414 944.175 60.2318 944.372 60.2684C944.568 60.3049 944.753 60.3866 944.913 60.5069C945.073 60.6273 945.203 60.783 945.292 60.9619C945.381 61.1408 945.427 61.338 945.427 61.5379C945.427 61.7377 945.381 61.9349 945.292 62.1138C945.203 62.2927 945.073 62.4484 944.913 62.5688C944.753 62.6891 944.568 62.7708 944.372 62.8073C944.175 62.8439 943.972 62.8344 943.78 62.7795Z" fill="#FFAF45"/>
<path d="M922.951 56.0255C921.333 56.0255 919.752 55.5463 918.408 54.6486C917.063 53.7509 916.015 52.4749 915.396 50.9821C914.777 49.4893 914.615 47.8466 914.931 46.2619C915.246 44.6771 916.025 43.2214 917.168 42.0789C918.312 40.9363 919.769 40.1583 921.355 39.843C922.942 39.5278 924.586 39.6895 926.08 40.3079C927.574 40.9262 928.852 41.9733 929.75 43.3168C930.649 44.6604 931.128 46.2399 931.128 47.8557C931.128 50.0224 930.267 52.1005 928.733 53.6326C927.2 55.1648 925.12 56.0255 922.951 56.0255ZM922.951 42.2685C921.839 42.2685 920.752 42.5983 919.828 43.2161C918.903 43.8338 918.183 44.7118 917.759 45.7387C917.334 46.7656 917.225 47.8952 917.443 48.9845C917.662 50.0738 918.2 51.0738 918.988 51.8577C919.776 52.6416 920.779 53.174 921.87 53.3877C922.962 53.6014 924.092 53.4868 925.118 53.0582C926.144 52.6296 927.019 51.9065 927.634 50.9803C928.248 50.0541 928.573 48.9667 928.568 47.8557C928.568 47.1199 928.423 46.3913 928.14 45.7118C927.857 45.0323 927.443 44.4153 926.921 43.8961C926.399 43.377 925.78 42.966 925.099 42.6866C924.417 42.4073 923.687 42.2652 922.951 42.2685Z" fill="#FFAF45"/>
<path d="M300.833 443.093H163.732C161.924 443.087 160.192 442.364 158.915 441.084C157.639 439.804 156.922 438.071 156.922 436.264V369.218C156.922 367.411 157.639 365.678 158.915 364.398C160.192 363.118 161.924 362.396 163.732 362.389H300.833C302.646 362.389 304.385 363.109 305.666 364.389C306.948 365.67 307.668 367.407 307.668 369.218V436.264C307.668 438.075 306.948 439.812 305.666 441.093C304.385 442.374 302.646 443.093 300.833 443.093ZM163.732 365.096C162.605 365.096 161.524 365.543 160.727 366.339C159.93 367.136 159.482 368.216 159.482 369.342V436.388C159.482 437.517 159.929 438.6 160.725 439.4C161.522 440.2 162.603 440.653 163.732 440.66H300.833C301.967 440.66 303.054 440.21 303.856 439.409C304.658 438.608 305.108 437.521 305.108 436.388V369.342C305.108 368.782 304.997 368.228 304.782 367.711C304.567 367.195 304.252 366.725 303.855 366.331C303.457 365.936 302.986 365.624 302.467 365.412C301.949 365.2 301.393 365.093 300.833 365.096H163.732Z" fill="white"/>
<path d="M306.375 378.307H158.264C157.994 378.23 157.756 378.067 157.587 377.843C157.418 377.619 157.326 377.346 157.326 377.065C157.326 376.784 157.418 376.512 157.587 376.288C157.756 376.064 157.994 375.901 158.264 375.824H306.45C306.642 375.769 306.845 375.759 307.042 375.796C307.238 375.832 307.424 375.914 307.583 376.034C307.743 376.155 307.873 376.31 307.962 376.489C308.051 376.668 308.098 376.865 308.098 377.065C308.098 377.265 308.051 377.462 307.962 377.641C307.873 377.82 307.743 377.976 307.583 378.096C307.424 378.216 307.238 378.298 307.042 378.335C306.845 378.371 306.642 378.362 306.45 378.307H306.375Z" fill="white"/>
<path d="M173.179 374.01C172.944 374.012 172.712 373.952 172.508 373.836L164.629 369.193C164.337 369.017 164.125 368.733 164.042 368.403C163.958 368.073 164.008 367.723 164.181 367.43C164.266 367.282 164.379 367.154 164.515 367.051C164.65 366.949 164.804 366.874 164.969 366.833C165.134 366.791 165.305 366.783 165.473 366.809C165.641 366.834 165.802 366.893 165.946 366.982L173.825 371.626C173.972 371.711 174.101 371.824 174.204 371.959C174.306 372.094 174.381 372.249 174.423 372.413C174.464 372.577 174.472 372.749 174.447 372.916C174.421 373.084 174.362 373.245 174.272 373.389C174.158 373.577 173.998 373.733 173.806 373.841C173.615 373.95 173.399 374.008 173.179 374.01Z" fill="#EA366E"/>
<path d="M165.323 374.01C165.009 374.055 164.689 373.982 164.425 373.806C164.161 373.63 163.971 373.364 163.891 373.057C163.811 372.75 163.847 372.424 163.992 372.142C164.137 371.86 164.38 371.641 164.676 371.527L172.556 366.884C172.847 366.744 173.18 366.718 173.489 366.811C173.798 366.904 174.061 367.11 174.226 367.387C174.391 367.664 174.446 367.993 174.381 368.309C174.316 368.625 174.135 368.905 173.873 369.094L165.994 373.737C165.801 373.89 165.568 373.985 165.323 374.01Z" fill="white"/>
<path d="M411.093 311.206C402.328 313.308 393.457 314.939 384.518 316.091C375.565 317.241 369.76 317.576 367.102 317.097C364.424 316.605 363.014 315.414 362.728 313.505L359.273 286.327L304.285 293.388C299.297 294.018 295.209 282.112 292.02 257.671C291.665 254.934 296.115 242.166 305.368 219.367C314.621 196.569 321.101 181.597 324.808 174.454C326.171 171.717 332.467 168.508 343.696 164.827C354.437 161.252 365.491 158.708 376.71 157.232C395.325 154.837 405.076 157.102 405.962 164.026L423.992 305.664C424.216 307.244 419.924 309.092 411.093 311.206ZM358.537 251.39L352.629 203.213L343.369 253.34L358.537 251.39Z" fill="#FFD083"/>
<path d="M379.117 316.595C374.612 317.169 370.905 317.539 367.993 317.706C365.071 317.873 362.984 317.834 361.7 317.605C360.411 317.368 359.471 316.971 358.828 316.444C358.197 315.928 357.825 315.268 357.698 314.433C357.698 314.431 357.698 314.43 357.698 314.428L354.156 287.345L354.092 286.851L353.597 286.914L298.192 293.98L298.192 293.98C297.176 294.11 296.133 293.627 295.053 292.29C293.969 290.948 292.913 288.819 291.901 285.862C289.879 279.954 288.082 270.899 286.517 258.672L286.517 258.669C286.481 258.401 286.5 257.961 286.603 257.318C286.705 256.684 286.882 255.889 287.137 254.928C287.646 253.007 288.458 250.454 289.577 247.265C291.815 240.889 295.266 232.001 299.934 220.597C309.271 197.783 315.784 182.825 319.48 175.699C319.8 175.104 320.409 174.443 321.358 173.721C322.303 173.002 323.557 172.244 325.128 171.449C328.271 169.86 332.64 168.146 338.245 166.307L338.247 166.307C349.037 162.737 360.144 160.199 371.417 158.728C380.779 157.532 387.852 157.509 392.677 158.622C395.085 159.178 396.899 160.009 398.157 161.088C399.404 162.158 400.124 163.487 400.331 165.095L418.497 306.822L418.497 306.825C418.513 306.939 418.46 307.184 417.98 307.573C417.517 307.947 416.766 308.361 415.695 308.809C413.561 309.699 410.283 310.669 405.841 311.715L405.84 311.716C397.025 313.816 388.105 315.444 379.117 316.595ZM379.117 316.595L379.18 317.091M379.117 316.595C379.117 316.595 379.116 316.595 379.116 316.595L379.18 317.091M379.18 317.091C388.186 315.938 397.124 314.306 405.955 312.202L357.203 314.503C357.492 316.413 358.933 317.604 361.611 318.097C364.302 318.576 370.159 318.241 379.18 317.091ZM353.085 252.844L353.58 252.781L353.518 252.286L347.545 204.078L346.557 204.048L337.227 254.208L337.102 254.882L337.782 254.795L353.085 252.844Z" fill="#FFB43A" stroke="black"/>
<path d="M563.003 343.098C542.557 347.379 521.443 347.379 500.997 343.098C492.593 340.93 484.8 336.864 478.218 331.215C464.739 319.83 458 297.571 458 264.438C458 232.464 465.033 210.792 479.099 199.42C485.815 193.929 493.62 189.921 502.001 187.66C511.778 185.271 521.823 184.151 531.887 184.326C541.992 184.156 552.077 185.277 561.897 187.66C570.306 189.911 578.14 193.919 584.881 199.42C598.96 210.805 606 232.478 606 264.438C606 297.571 599.261 319.83 585.782 331.215C579.198 336.861 571.405 340.926 563.003 343.098ZM527.34 308.595C527.797 309.471 528.489 310.203 529.338 310.71C530.187 311.217 531.161 311.479 532.151 311.467C533.14 311.454 534.107 311.167 534.943 310.638C535.779 310.11 536.451 309.36 536.886 308.472C538.074 306.427 539.036 302.07 539.774 295.28C540.631 285.61 541 275.904 540.88 266.197C540.88 253.639 540.511 243.843 539.774 236.807C539.036 229.771 538.074 225.115 536.886 222.838C536.551 221.847 535.916 220.984 535.069 220.368C534.222 219.752 533.204 219.414 532.156 219.401C531.109 219.387 530.082 219.699 529.22 220.293C528.357 220.886 527.7 221.733 527.34 222.715C524.376 227.747 522.895 242.241 522.895 266.197C522.895 290.153 524.376 304.286 527.34 308.595Z" fill="#FFD083"/>
<path d="M469.545 330.762L469.542 330.76C456.242 319.441 449.5 297.237 449.5 263.923C449.5 231.816 456.537 210.214 470.435 198.905L470.438 198.903C477.084 193.414 484.819 189.413 493.126 187.167C502.857 184.765 512.858 183.642 522.878 183.828L522.887 183.829L522.896 183.828C532.956 183.648 542.998 184.77 552.773 187.168C561.115 189.404 568.885 193.405 575.563 198.903L575.564 198.905C589.45 210.228 596.486 231.83 596.5 263.924C596.5 297.237 589.758 319.441 576.458 330.76L576.455 330.762C569.931 336.385 562.211 340.431 553.889 342.591C533.518 346.881 512.482 346.881 492.111 342.591C483.787 340.436 476.066 336.389 469.545 330.762ZM517.929 308.663L517.952 308.696C518.173 309.112 518.441 309.499 518.751 309.848L518.84 309.975V309.945C519.195 310.326 519.6 310.661 520.047 310.937C520.969 311.507 522.03 311.809 523.113 311.809C524.195 311.809 525.256 311.507 526.178 310.937C527.095 310.37 527.837 309.56 528.325 308.597C528.957 307.517 529.505 305.846 529.987 303.627C530.474 301.387 530.901 298.549 531.271 295.116L531.271 295.116L531.272 295.106C532.131 285.367 532.5 275.59 532.38 265.814C532.38 253.145 532.011 243.268 531.271 236.19C530.902 232.655 530.474 229.701 529.989 227.333C529.508 224.993 528.965 223.196 528.347 221.97C527.974 220.89 527.28 219.95 526.358 219.279C525.425 218.6 524.306 218.229 523.154 218.216C522.003 218.204 520.875 218.551 519.929 219.21C518.995 219.859 518.282 220.78 517.885 221.848C517.116 223.177 516.462 225.083 515.907 227.534C515.346 230.016 514.88 233.089 514.508 236.747C513.765 244.064 513.395 253.756 513.395 265.817C513.395 277.878 513.765 287.471 514.509 294.589C514.88 298.148 515.346 301.099 515.909 303.435C516.469 305.761 517.135 307.52 517.929 308.663Z" fill="#FFB43A" stroke="black"/>
<path d="M730.902 284.276C721.835 284.067 712.785 283.382 703.789 282.225C694.807 281.077 689.085 279.929 686.624 278.78C684.142 277.652 683.035 276.114 683.281 274.207L686.768 247.054L631.6 239.978C626.609 239.322 625.68 226.785 628.811 202.366C629.18 199.632 636.7 188.414 651.37 168.712C666.04 149.011 676.103 136.173 681.558 130.198C683.623 127.915 690.541 126.411 702.313 125.686C713.64 124.952 725.011 125.289 736.275 126.691C754.965 129.084 763.852 133.746 762.936 140.678L744.745 282.184C744.642 283.866 739.987 284.461 730.902 284.276ZM694.95 213.133L701.349 165.062L679.733 211.185L694.95 213.133Z" fill="#FFD083"/>
<path d="M724.645 282.761L724.642 282.761C715.528 282.561 706.431 281.878 697.39 280.714L697.389 280.714C692.879 280.14 689.192 279.57 686.327 279.002C683.451 278.432 681.437 277.872 680.247 277.331C679.053 276.777 678.236 276.157 677.747 275.486C677.266 274.828 677.08 274.096 677.188 273.255L680.699 246.125L680.763 245.628L680.267 245.565L624.706 238.469L624.706 238.469C623.685 238.339 622.796 237.61 622.087 236.048C621.376 234.48 620.891 232.159 620.659 229.049C620.195 222.836 620.747 213.641 622.329 201.44C622.364 201.172 622.497 200.752 622.763 200.156C623.024 199.57 623.398 198.846 623.889 197.982C624.872 196.254 626.306 193.992 628.196 191.192C631.976 185.594 637.561 177.872 644.953 168.024C659.744 148.321 669.864 135.504 675.325 129.551C675.783 129.055 676.539 128.567 677.641 128.107C678.738 127.65 680.144 127.233 681.868 126.861C685.316 126.116 689.987 125.561 695.89 125.2L695.892 125.199C707.275 124.447 718.704 124.782 730.022 126.201C739.417 127.396 746.289 129.149 750.684 131.435C752.878 132.576 754.424 133.834 755.365 135.191C756.298 136.537 756.654 138 756.44 139.604L756.439 139.606L738.139 281.105L738.139 281.105L738.138 281.119C738.123 281.267 737.999 281.506 737.449 281.772C736.913 282.032 736.085 282.256 734.937 282.428C732.647 282.77 729.223 282.883 724.645 282.761ZM688.36 212.638L688.853 212.701L688.919 212.209L695.384 164.12L694.437 163.84L672.646 209.96L672.352 210.582L673.035 210.669L688.36 212.638Z" fill="#FFB43A" stroke="black"/>
<path d="M398.001 212.309C397.766 212.308 397.538 212.216 397.358 212.05C397.178 211.885 397.058 211.655 397.017 211.402L392.018 178.589C391.993 178.448 391.994 178.302 392.022 178.161C392.049 178.021 392.102 177.887 392.178 177.769C392.254 177.651 392.35 177.551 392.462 177.474C392.574 177.398 392.698 177.347 392.828 177.324C392.959 177.3 393.093 177.304 393.222 177.337C393.351 177.369 393.473 177.43 393.58 177.514C393.688 177.598 393.779 177.705 393.849 177.828C393.919 177.951 393.965 178.088 393.986 178.231L398.985 211.043C399.03 211.328 398.97 211.621 398.819 211.858C398.667 212.095 398.435 212.257 398.175 212.309H398.001Z" fill="white"/>
<path d="M580.938 224.309C580.705 224.311 580.479 224.232 580.295 224.085C580.112 223.938 579.982 223.732 579.928 223.5C576.572 209.836 563.758 202.392 563.535 202.309C563.294 202.171 563.116 201.941 563.04 201.669C562.964 201.397 562.997 201.105 563.131 200.858C563.265 200.61 563.489 200.427 563.755 200.35C564.02 200.272 564.305 200.305 564.546 200.443C565.112 200.754 578.371 208.384 581.969 222.982C582.002 223.119 582.009 223.262 581.988 223.402C581.968 223.542 581.92 223.677 581.849 223.798C581.778 223.919 581.684 224.025 581.573 224.109C581.461 224.193 581.335 224.254 581.201 224.288L580.938 224.309Z" fill="white"/>
<path d="M744.952 176.309H744.843C744.595 176.277 744.367 176.135 744.21 175.913C744.053 175.691 743.979 175.408 744.005 175.124L746.118 152.268C746.15 151.987 746.276 151.731 746.47 151.553C746.663 151.375 746.909 151.289 747.157 151.312C747.405 151.344 747.633 151.486 747.79 151.708C747.947 151.93 748.021 152.213 747.995 152.497L745.882 175.353C745.859 175.615 745.751 175.859 745.579 176.036C745.407 176.213 745.184 176.31 744.952 176.309Z" fill="white"/>
<path d="M555.468 43.3853C552.627 43.5932 549.817 44.118 547.092 44.9497C544.202 45.8226 541.424 47.0311 538.815 48.5504L540.356 53.7899L533.869 59.1537L529.196 56.5215C525.381 60.8995 522.596 66.0751 521.044 71.6689L526.164 74.5495L525.244 82.893L519.727 84.3085C519.924 87.3155 520.466 90.2899 521.342 93.1735C522.141 95.7641 523.216 98.2616 524.548 100.623L530.439 98.8351L535.882 105.242L532.776 110.829C537.081 114.621 542.174 117.411 547.689 118.999L550.398 113.66L558.774 114.479L560.638 120.414C566.527 120.05 572.256 118.352 577.39 115.448L575.626 109.389L582.113 104.025L587.556 107.104C591.318 102.737 594.061 97.5883 595.584 92.0312L589.545 88.9272L590.489 80.5837L596.827 78.6716C596.324 72.9122 594.559 67.3338 591.657 62.3321L585.841 64.3683L580.447 57.9369L583.256 52.3497C578.824 48.5969 573.598 45.8968 567.97 44.453L565.485 49.4194L557.109 48.5752L555.468 43.3853ZM576.297 76.4615C577.389 80.0072 577.404 83.797 576.34 87.3513C575.275 90.9055 573.179 94.0643 570.317 96.4279C567.455 98.7914 563.955 100.253 560.261 100.629C556.566 101.004 552.844 100.276 549.564 98.537C546.284 96.7977 543.594 94.1252 541.835 90.858C540.076 87.5907 539.327 83.8754 539.682 80.1825C540.038 76.4896 541.482 72.9851 543.832 70.1125C546.182 67.24 549.332 65.1285 552.883 64.0455C557.636 62.5961 562.77 63.0894 567.159 65.417C571.549 67.7446 574.835 71.7165 576.297 76.4615Z" fill="white"/>
<path d="M606.795 20.267C605.161 19.9183 603.495 19.7436 601.824 19.7456C600.047 19.765 598.279 19.9899 596.555 20.416V23.6443L591.981 25.6059L589.769 23.3214C586.885 25.1642 584.455 27.6344 582.66 30.5475L585.146 33.0307L583.232 37.6245H579.877C579.492 39.3608 579.308 41.1356 579.33 42.9138C579.334 44.5266 579.517 46.1339 579.877 47.7063H583.506L585.519 52.2258L582.834 54.8579C584.646 57.7308 587.074 60.1651 589.943 61.9847L592.429 59.5015L597.027 61.3639V65.0143C598.762 65.4194 600.539 65.6111 602.321 65.5854C603.994 65.5627 605.661 65.363 607.292 64.9894V61.2646L611.865 59.303L614.351 61.9352C617.207 60.0955 619.618 57.6442 621.41 54.7587L618.502 52.0024L620.415 47.4332H624.318C624.65 45.8494 624.809 44.234 624.79 42.6158C624.772 40.8327 624.547 39.0577 624.119 37.3266L620.49 37.5253L618.502 32.981L620.987 30.2992C619.067 27.4288 616.517 25.0338 613.531 23.2966L611.269 25.7798L606.67 23.9174L606.795 20.267ZM613.083 42.4172C613.107 44.6086 612.481 46.7578 611.282 48.5931C610.084 50.4284 608.367 51.8672 606.349 52.7273C604.332 53.5874 602.104 53.8302 599.948 53.4249C597.793 53.0197 595.806 51.9847 594.24 50.4508C592.673 48.917 591.597 46.9533 591.148 44.8083C590.699 42.6633 590.897 40.4333 591.717 38.4007C592.537 36.3681 593.942 34.6243 595.754 33.3899C597.567 32.1555 599.705 31.486 601.898 31.4663C603.353 31.4499 604.796 31.7203 606.146 32.2621C607.496 32.8039 608.726 33.6064 609.765 34.6236C610.804 35.6408 611.632 36.8528 612.201 38.1902C612.77 39.5275 613.07 40.964 613.083 42.4172Z" fill="#80BAFF"/>
<path d="M366.644 394.809H702.511C708.509 394.809 713.37 399.666 713.37 405.657V431.755C713.37 437.746 708.509 442.603 702.511 442.603H366.644C360.646 442.603 355.785 437.746 355.785 431.755V405.657C355.785 399.666 360.646 394.809 366.644 394.809Z" fill="white" stroke="black"/>
<path d="M407.754 394.309V443.153H366.619C363.608 443.147 360.723 441.949 358.594 439.822C356.465 437.695 355.266 434.813 355.26 431.805V405.657C355.26 402.647 356.456 399.761 358.587 397.632C360.717 395.504 363.606 394.309 366.619 394.309H407.754Z" fill="#FFB43A"/>
<path d="M425.154 420.606C424.817 420.6 424.496 420.465 424.255 420.229C424.015 419.994 423.874 419.675 423.861 419.339C423.861 418.997 423.998 418.668 424.24 418.426C424.482 418.184 424.811 418.048 425.154 418.048L655.71 417.427C655.98 417.504 656.218 417.667 656.387 417.891C656.556 418.115 656.648 418.388 656.648 418.669C656.648 418.949 656.556 419.222 656.387 419.446C656.218 419.67 655.98 419.833 655.71 419.91L425.129 420.531L425.154 420.606Z" fill="#CBCBD8"/>
<path d="M380.191 427.758C377.893 427.763 375.645 427.086 373.733 425.814C371.82 424.542 370.328 422.731 369.447 420.611C368.565 418.491 368.333 416.157 368.78 413.905C369.228 411.653 370.334 409.585 371.958 407.962C373.583 406.338 375.654 405.233 377.908 404.787C380.161 404.34 382.497 404.572 384.619 405.452C386.741 406.333 388.554 407.823 389.827 409.734C391.101 411.645 391.778 413.891 391.773 416.186C391.773 417.706 391.474 419.211 390.892 420.615C390.31 422.018 389.456 423.294 388.381 424.369C387.305 425.443 386.028 426.296 384.623 426.877C383.218 427.459 381.712 427.758 380.191 427.758ZM380.191 405.881C378.15 405.876 376.153 406.476 374.453 407.606C372.754 408.735 371.428 410.343 370.643 412.225C369.859 414.108 369.651 416.181 370.046 418.182C370.441 420.182 371.422 422.021 372.863 423.464C374.305 424.908 376.143 425.892 378.144 426.292C380.146 426.691 382.221 426.489 384.107 425.709C385.994 424.93 387.606 423.609 388.741 421.914C389.875 420.219 390.481 418.226 390.481 416.186C390.474 413.462 389.388 410.851 387.46 408.924C385.531 406.998 382.918 405.912 380.191 405.906V405.881Z" fill="white"/>
<path d="M391.175 432.699C391.078 432.699 390.983 432.677 390.897 432.634C390.811 432.591 390.735 432.528 390.677 432.451L385.557 425.821C385.497 425.763 385.449 425.693 385.417 425.617C385.384 425.54 385.367 425.457 385.367 425.374C385.367 425.29 385.384 425.208 385.417 425.131C385.449 425.054 385.497 424.985 385.557 424.927C385.682 424.81 385.846 424.745 386.017 424.745C386.188 424.745 386.353 424.81 386.477 424.927L391.597 431.557C391.693 431.699 391.733 431.87 391.711 432.04C391.688 432.209 391.603 432.365 391.473 432.476C391.394 432.574 391.291 432.651 391.175 432.699Z" fill="white"/>
<path d="M202.208 502.745C202.208 504.612 201.654 506.437 200.615 507.99C199.576 509.542 198.099 510.752 196.372 511.465C194.645 512.179 192.744 512.364 190.911 511.998C189.079 511.632 187.396 510.731 186.076 509.408C184.756 508.086 183.858 506.403 183.497 504.57C183.135 502.738 183.326 500.84 184.044 499.116C184.763 497.393 185.977 495.921 187.534 494.887C189.09 493.853 190.919 493.304 192.788 493.309C195.289 493.315 197.685 494.312 199.451 496.081C201.216 497.85 202.208 500.246 202.208 502.745Z" fill="#CBCBD8"/>
<path d="M166.89 538.677C166.89 540.543 166.336 542.367 165.298 543.919C164.26 545.471 162.785 546.68 161.06 547.394C159.334 548.109 157.435 548.295 155.602 547.931C153.77 547.567 152.087 546.669 150.766 545.349C149.446 544.029 148.546 542.348 148.181 540.517C147.817 538.687 148.004 536.79 148.719 535.065C149.434 533.341 150.644 531.867 152.198 530.831C153.751 529.794 155.577 529.24 157.445 529.24C159.95 529.24 162.352 530.235 164.124 532.004C165.895 533.774 166.89 536.174 166.89 538.677Z" fill="#CBCBD8"/>
<path d="M202.208 574.932C202.208 576.799 201.654 578.624 200.615 580.177C199.576 581.729 198.099 582.939 196.372 583.652C194.645 584.366 192.744 584.551 190.911 584.185C189.079 583.819 187.396 582.918 186.076 581.595C184.756 580.273 183.858 578.589 183.497 576.757C183.135 574.925 183.326 573.027 184.044 571.304C184.763 569.58 185.977 568.108 187.534 567.074C189.09 566.04 190.919 565.491 192.788 565.496C194.027 565.496 195.254 565.74 196.399 566.214C197.543 566.689 198.583 567.384 199.458 568.261C200.333 569.137 201.026 570.178 201.498 571.323C201.97 572.467 202.212 573.694 202.208 574.932Z" fill="#CBCBD8"/>
<path d="M238.796 538.006C238.801 539.873 238.251 541.7 237.217 543.255C236.182 544.81 234.708 546.024 232.983 546.742C231.257 547.46 229.358 547.65 227.524 547.289C225.69 546.927 224.005 546.031 222.682 544.712C221.358 543.393 220.456 541.712 220.09 539.881C219.723 538.05 219.909 536.151 220.623 534.425C221.337 532.7 222.547 531.225 224.101 530.187C225.655 529.149 227.482 528.595 229.351 528.595C231.852 528.595 234.25 529.585 236.021 531.35C237.791 533.114 238.79 535.508 238.796 538.006Z" fill="#CBCBD8"/>
<path d="M227.387 512.23C227.412 514.103 226.878 515.94 225.854 517.509C224.831 519.078 223.363 520.306 221.638 521.039C219.913 521.771 218.009 521.975 216.168 521.623C214.327 521.271 212.632 520.379 211.3 519.062C209.968 517.745 209.058 516.062 208.686 514.226C208.314 512.391 208.497 510.487 209.212 508.756C209.927 507.025 211.141 505.545 212.7 504.506C214.259 503.466 216.093 502.914 217.967 502.918C220.446 502.925 222.824 503.905 224.586 505.647C226.349 507.389 227.355 509.754 227.387 512.23Z" fill="white"/>
<path d="M177.601 564.8C177.601 566.667 177.046 568.493 176.007 570.045C174.968 571.597 173.492 572.807 171.764 573.52C170.037 574.234 168.137 574.419 166.304 574.053C164.471 573.687 162.788 572.786 161.468 571.464C160.148 570.141 159.251 568.458 158.889 566.626C158.528 564.794 158.718 562.895 159.437 561.172C160.156 559.448 161.37 557.976 162.927 556.942C164.483 555.908 166.312 555.359 168.181 555.364C170.681 555.37 173.077 556.367 174.843 558.136C176.609 559.905 177.601 562.302 177.601 564.8Z" fill="#CBCBD8"/>
<path d="M228.456 564.477C228.456 566.344 227.902 568.17 226.863 569.722C225.824 571.274 224.347 572.484 222.62 573.197C220.893 573.91 218.992 574.096 217.16 573.73C215.327 573.364 213.644 572.462 212.324 571.14C211.004 569.818 210.106 568.134 209.745 566.302C209.383 564.47 209.574 562.572 210.293 560.848C211.011 559.125 212.226 557.653 213.782 556.619C215.339 555.585 217.167 555.036 219.036 555.041C220.276 555.041 221.502 555.285 222.647 555.759C223.791 556.234 224.831 556.929 225.706 557.806C226.581 558.682 227.274 559.723 227.746 560.868C228.218 562.012 228.46 563.239 228.456 564.477Z" fill="#CBCBD8"/>
<path d="M177.601 512.652C177.601 514.52 177.046 516.345 176.007 517.898C174.968 519.45 173.492 520.659 171.764 521.373C170.037 522.086 168.137 522.272 166.304 521.906C164.471 521.539 162.788 520.638 161.468 519.316C160.148 517.994 159.251 516.31 158.889 514.478C158.528 512.646 158.718 510.748 159.437 509.024C160.156 507.3 161.37 505.828 162.927 504.795C164.483 503.761 166.312 503.211 168.181 503.216C169.42 503.216 170.647 503.461 171.792 503.935C172.936 504.41 173.975 505.105 174.85 505.982C175.726 506.858 176.419 507.899 176.891 509.043C177.363 510.188 177.604 511.414 177.601 512.652Z" fill="#CBCBD8"/>
<path d="M868.359 284.362C867.687 284.175 867.089 283.598 866.614 282.446C866.123 281.258 865.801 279.538 865.664 277.257L865.664 277.255C865.396 272.997 865.775 268.724 866.787 264.577C866.862 264.295 867.108 263.968 867.683 263.618C868.253 263.27 869.085 262.936 870.213 262.619C873.433 261.937 876.734 261.7 880.02 261.915L880.02 261.915L880.032 261.916C884.65 262.11 889.236 262.78 893.715 263.915L893.719 263.916C903.041 266.181 909.531 269.479 913.286 273.752C917.014 277.994 918.097 283.257 916.477 289.621L916.475 289.628L916.473 289.636C915.75 292.886 914.176 295.89 911.907 298.347L911.907 298.347L911.9 298.356C910.116 300.378 907.813 301.884 905.233 302.714C901.114 303.959 896.749 304.189 892.519 303.383C892.519 303.383 892.518 303.383 892.518 303.383L890.246 302.94L889.752 302.843L889.659 303.338C889.443 304.49 889.324 305.659 889.305 306.83L868.359 284.362ZM876.829 315.485L876.843 315.489L876.857 315.491C880.289 316.144 883.531 317.542 886.35 319.584C887.32 320.503 887.992 321.685 888.281 322.982C888.572 324.289 888.461 325.652 887.963 326.896L887.951 326.927L887.943 326.959C887.241 329.706 885.633 331.461 883.142 332.291C880.612 333.134 877.12 333.038 872.661 331.922C868.201 330.805 865.078 329.257 863.253 327.335C861.458 325.446 860.881 323.16 861.583 320.414C862.286 317.663 863.862 315.911 866.327 315.086C868.835 314.248 872.316 314.351 876.829 315.485Z" fill="#CBCBD8" stroke="black"/>
<path d="M980.686 334.619C990.625 322.82 987.213 309.619 970.451 295.015C966.437 291.492 962.069 288.405 957.418 285.804L980.686 334.619ZM980.686 334.619C978.165 337.707 974.898 340.084 971.201 341.518M980.686 334.619L971.201 341.518M971.201 341.518C968.191 342.725 964.916 343.095 961.717 342.588M971.201 341.518L946.349 335.237M948.071 336.585L946.349 335.237M948.071 336.585C952.064 339.687 956.75 341.748 961.717 342.588M948.071 336.585L948.379 336.191L948.378 336.191C952.305 339.241 956.914 341.269 961.798 342.094M948.071 336.585L948.377 336.19L946.264 334.535L945.865 334.223L945.558 334.626C944.715 335.731 943.969 336.909 943.329 338.146M946.349 335.237C946.35 335.235 946.352 335.234 946.353 335.232L945.955 334.929L945.647 335.323L945.656 335.33M946.349 335.237L945.656 335.33M961.717 342.588L961.8 342.095C961.799 342.094 961.799 342.094 961.798 342.094M961.717 342.588L961.795 342.094C961.796 342.094 961.797 342.094 961.798 342.094M961.798 342.094C964.907 342.586 968.09 342.227 971.015 341.054L971.02 341.052C974.636 339.649 977.832 337.324 980.298 334.302L980.303 334.296L980.303 334.296C985.184 328.502 986.757 322.415 985.097 315.994C983.428 309.535 978.471 302.666 970.122 295.392L970.121 295.391C966.133 291.891 961.794 288.825 957.174 286.24L957.168 286.237L957.162 286.233C953.908 284.287 950.396 282.82 946.733 281.876C945.413 281.624 944.369 281.539 943.589 281.606C942.796 281.675 942.361 281.892 942.145 282.155L942.143 282.158C938.939 285.981 936.331 290.277 934.408 294.897L934.406 294.903L934.405 294.903C933.34 297.366 932.767 299.343 932.65 300.858C932.536 302.326 932.853 303.282 933.469 303.867C935.685 304.79 937.991 305.474 940.348 305.908L940.366 305.911L940.383 305.915C944.129 306.887 947.619 308.675 950.607 311.155L950.613 311.159L950.618 311.164C951.958 312.343 952.85 313.487 953.193 314.605C953.549 315.767 953.297 316.848 952.478 317.797M943.329 338.146C942.573 339.572 941.679 340.918 940.659 342.164M943.329 338.146C943.33 338.146 943.33 338.145 943.33 338.144L943.772 338.379M943.329 338.146C943.329 338.147 943.328 338.148 943.328 338.149L943.772 338.379M940.659 342.164C940.479 342.374 940.022 342.533 938.938 342.212C937.898 341.903 936.484 341.206 934.688 340.093L934.686 340.091C931.577 338.182 928.612 336.042 925.815 333.69M940.659 342.164C940.659 342.163 940.66 342.162 940.661 342.162L941.043 342.484M940.659 342.164C940.658 342.165 940.657 342.166 940.656 342.167L941.043 342.484M925.815 333.69C924.134 332.16 922.929 330.732 922.226 329.404C921.533 328.094 921.34 326.909 921.627 325.813M925.815 333.69C925.818 333.692 925.82 333.694 925.822 333.697L925.486 334.066M925.815 333.69C925.813 333.688 925.81 333.686 925.808 333.684L925.486 334.066M921.627 325.813C923.579 321.287 926.338 317.163 929.767 313.648L929.778 313.637L929.788 313.625C929.964 313.422 930.245 313.279 930.717 313.261C931.199 313.241 931.842 313.355 932.664 313.634C934.308 314.192 936.536 315.365 939.375 317.17M921.627 325.813C921.622 325.824 921.617 325.835 921.612 325.847L921.153 325.649M921.627 325.813C921.63 325.802 921.633 325.791 921.636 325.78L921.153 325.649M939.375 317.17C941.504 318.526 943.883 319.43 946.369 319.827M939.375 317.17L939.644 316.749M939.375 317.17C939.376 317.17 939.376 317.171 939.376 317.171L939.644 316.749M946.369 319.827C947.471 320.093 948.624 320.045 949.701 319.688C950.783 319.33 951.744 318.675 952.478 317.797M946.369 319.827C946.362 319.825 946.355 319.823 946.348 319.822L946.467 319.336M946.369 319.827C946.375 319.828 946.382 319.829 946.389 319.83L946.467 319.336M952.478 317.797C952.477 317.798 952.476 317.799 952.475 317.8L952.096 317.473M952.478 317.797C952.479 317.796 952.479 317.794 952.48 317.793L952.096 317.473M952.096 317.473C951.422 318.282 950.538 318.885 949.544 319.214C948.549 319.543 947.484 319.585 946.467 319.336M952.096 317.473C953.529 315.817 952.915 313.851 950.288 311.539C947.356 309.107 943.932 307.352 940.258 306.399L946.467 319.336M946.467 319.336C944.043 318.952 941.721 318.071 939.644 316.749M946.467 319.336L945.656 335.33M945.656 335.33C944.952 336.296 944.322 337.315 943.772 338.379M943.772 338.379C943 339.836 942.086 341.211 941.043 342.484M941.043 342.484C940.258 343.415 938.041 342.76 934.424 340.518C931.291 338.593 928.304 336.437 925.486 334.066M925.486 334.066C922.074 330.962 920.471 328.167 921.153 325.649M921.153 325.649C923.13 321.053 925.929 316.867 929.409 313.299C930.569 311.953 933.947 313.126 939.644 316.749M915.441 334.825C918.232 335.22 921.453 336.871 925.103 339.845H924.917L926.066 340.74C929.255 343.223 931.869 346.382 933.725 349.995C934.241 351.481 934.313 353.088 933.933 354.615C933.55 356.154 932.724 357.542 931.562 358.605L931.54 358.626L931.52 358.649C929.345 361.19 926.782 362.216 923.789 361.799C920.752 361.376 917.211 359.457 913.157 355.94C909.092 352.412 906.676 349.16 905.803 346.185C904.942 343.252 905.565 340.534 907.719 337.976C909.87 335.422 912.433 334.398 915.441 334.825Z" fill="#CBCBD8" stroke="black"/>
<path d="M153.486 249.616C156.719 248.032 160.038 246.631 163.428 245.419C167.281 244.004 169.418 243.855 169.841 244.997C170.263 246.139 174.314 258.505 181.696 281.227C181.848 282.01 181.795 282.819 181.542 283.576C181.29 284.333 180.847 285.012 180.255 285.548C178.389 287.502 176.053 288.947 173.469 289.744C169.144 291.333 166.485 290.986 165.416 288.751L149.758 252.471C149.484 251.95 150.727 251.006 153.486 249.616ZM187.463 302.731C185.779 304.57 183.634 305.925 181.249 306.655C179.005 307.629 176.553 308.03 174.116 307.822C172.276 307.524 170.835 306.009 169.841 303.277C168.184 298.824 170.379 295.513 176.427 293.345C182.467 291.135 186.369 292.227 187.935 296.672C188.405 297.632 188.609 298.701 188.526 299.766C188.443 300.832 188.076 301.855 187.463 302.731Z" fill="#CBCBD8"/>
<path d="M125.152 290.737C126.694 288.681 128.354 286.716 130.123 284.852C132.112 282.692 133.404 281.897 134.05 282.493C134.697 283.089 141.283 289.595 153.363 301.589C153.708 302.043 153.934 302.576 154.021 303.14C154.108 303.704 154.052 304.28 153.86 304.817C153.29 306.651 152.274 308.315 150.902 309.659C148.69 312.142 146.876 312.738 145.484 311.646L123.76 293.767C123.388 293.519 123.86 292.5 125.152 290.737ZM163.976 313.335C163.5 315.047 162.583 316.605 161.316 317.854C160.203 319.195 158.778 320.244 157.166 320.908C156.396 321.059 155.6 321 154.861 320.738C154.122 320.476 153.467 320.02 152.965 319.418C150.48 317.134 150.803 314.303 153.885 310.951C156.967 307.598 159.8 307.027 162.286 309.312C162.901 309.77 163.381 310.385 163.674 311.094C163.967 311.802 164.063 312.576 163.951 313.335H163.976Z" fill="#CBCBD8"/>
</svg>
