<svg width="32" height="32" viewBox="0 0 32 32" fill="none" xmlns="http://www.w3.org/2000/svg">
<circle cx="16" cy="16" r="16" fill="#FEB528"/>
<path d="M16.5 26C15.0366 26 13.9207 25.5986 13.1524 24.7958C12.3841 23.9751 12 22.8066 12 21.2901V7H15.0183V21.5042C15.0183 22.1465 15.1463 22.6103 15.4024 22.8958C15.6768 23.1812 16.061 23.3239 16.5549 23.3239C17.0488 23.3239 17.4238 23.1812 17.6799 22.8958C17.9543 22.6103 18.0915 22.1465 18.0915 21.5042V7H21V21.2901C21 22.8066 20.6159 23.9751 19.8476 24.7958C19.0793 25.5986 17.9634 26 16.5 26Z" fill="black"/>
</svg>
