<svg width="139" height="28" viewBox="0 0 139 28" fill="none" xmlns="http://www.w3.org/2000/svg">
<path d="M6.63801 27.38C4.61134 27.38 3.06601 26.81 2.00201 25.67C0.938006 24.5047 0.406006 22.8454 0.406006 20.692V0.400019H4.58601V20.996C4.58601 21.908 4.76334 22.5667 5.11801 22.972C5.49801 23.3774 6.03001 23.58 6.71401 23.58C7.39801 23.58 7.91734 23.3774 8.27201 22.972C8.65201 22.5667 8.84201 21.908 8.84201 20.996V0.400019H12.87V20.692C12.87 22.8454 12.338 24.5047 11.274 25.67C10.21 26.81 8.66467 27.38 6.63801 27.38Z" fill="white"/>
<path d="M15.8471 0.400019H20.0271V27H15.8471V0.400019Z" fill="white"/>
<path d="M29.2376 27.38C27.2109 27.38 25.6656 26.81 24.6016 25.67C23.5376 24.5047 23.0056 22.8454 23.0056 20.692V0.400019H27.1856V20.996C27.1856 21.908 27.3629 22.5667 27.7176 22.972C28.0976 23.3774 28.6296 23.58 29.3136 23.58C29.9976 23.58 30.5169 23.3774 30.8716 22.972C31.2516 22.5667 31.4416 21.908 31.4416 20.996V0.400019H35.4696V20.692C35.4696 22.8454 34.9376 24.5047 33.8736 25.67C32.8096 26.81 31.2643 27.38 29.2376 27.38Z" fill="white"/>
<path d="M42.0956 13.396L37.4976 0.400019H41.9056L44.7176 8.98802H44.7936L47.6816 0.400019H51.6336L47.0356 13.396L51.8616 27H47.4536L44.4136 17.728H44.3376L41.2216 27H37.2696L42.0956 13.396Z" fill="white"/>
<path d="M65.367 27.38C63.3403 27.38 61.8077 26.81 60.769 25.67C59.7303 24.5047 59.211 22.8454 59.211 20.692V19.172H63.163V20.996C63.163 22.7187 63.885 23.58 65.329 23.58C66.0383 23.58 66.5703 23.3774 66.925 22.972C67.305 22.5414 67.495 21.8574 67.495 20.92C67.495 19.8054 67.2417 18.83 66.735 17.994C66.2283 17.1327 65.291 16.1067 63.923 14.916C62.2003 13.396 60.997 12.028 60.313 10.812C59.629 9.57069 59.287 8.17735 59.287 6.63202C59.287 4.52935 59.819 2.90802 60.883 1.76802C61.947 0.602686 63.4923 0.0200195 65.519 0.0200195C67.5203 0.0200195 69.0277 0.602686 70.041 1.76802C71.0797 2.90802 71.599 4.55469 71.599 6.70802V7.81002H67.647V6.44202C67.647 5.53002 67.4697 4.87135 67.115 4.46602C66.7603 4.03535 66.241 3.82002 65.557 3.82002C64.1637 3.82002 63.467 4.66869 63.467 6.36602C63.467 7.32869 63.7203 8.22802 64.227 9.06402C64.759 9.90002 65.709 10.9134 67.077 12.104C68.825 13.624 70.0283 15.0047 70.687 16.246C71.3457 17.4874 71.675 18.944 71.675 20.616C71.675 22.7947 71.1303 24.4667 70.041 25.632C68.977 26.7974 67.419 27.38 65.367 27.38Z" fill="white"/>
<path d="M77.3397 4.20002H72.9697V0.400019H85.8897V4.20002H81.5197V27H77.3397V4.20002Z" fill="white"/>
<path d="M93.9935 27.38C91.9668 27.38 90.4215 26.81 89.3575 25.67C88.2935 24.5047 87.7615 22.8454 87.7615 20.692V0.400019H91.9415V20.996C91.9415 21.908 92.1188 22.5667 92.4735 22.972C92.8535 23.3774 93.3855 23.58 94.0695 23.58C94.7535 23.58 95.2728 23.3774 95.6275 22.972C96.0075 22.5667 96.1975 21.908 96.1975 20.996V0.400019H100.225V20.692C100.225 22.8454 99.6935 24.5047 98.6295 25.67C97.5655 26.81 96.0201 27.38 93.9935 27.38Z" fill="white"/>
<path d="M103.203 0.400019H109.587C111.664 0.400019 113.222 0.957353 114.261 2.07202C115.299 3.18669 115.819 4.82069 115.819 6.97402V20.426C115.819 22.5794 115.299 24.2134 114.261 25.328C113.222 26.4427 111.664 27 109.587 27H103.203V0.400019ZM109.511 23.2C110.195 23.2 110.714 22.9974 111.069 22.592C111.449 22.1867 111.639 21.528 111.639 20.616V6.78402C111.639 5.87202 111.449 5.21335 111.069 4.80802C110.714 4.40269 110.195 4.20002 109.511 4.20002H107.383V23.2H109.511Z" fill="white"/>
<path d="M118.64 0.400019H122.82V27H118.64V0.400019Z" fill="white"/>
<path d="M131.993 27.38C129.941 27.38 128.37 26.7974 127.281 25.632C126.191 24.4667 125.647 22.82 125.647 20.692V6.70802C125.647 4.58002 126.191 2.93335 127.281 1.76802C128.37 0.602686 129.941 0.0200195 131.993 0.0200195C134.045 0.0200195 135.615 0.602686 136.705 1.76802C137.794 2.93335 138.339 4.58002 138.339 6.70802V20.692C138.339 22.82 137.794 24.4667 136.705 25.632C135.615 26.7974 134.045 27.38 131.993 27.38ZM131.993 23.58C133.437 23.58 134.159 22.706 134.159 20.958V6.44202C134.159 4.69402 133.437 3.82002 131.993 3.82002C130.549 3.82002 129.827 4.69402 129.827 6.44202V20.958C129.827 22.706 130.549 23.58 131.993 23.58Z" fill="white"/>
</svg>
