<svg width="100" height="100" viewBox="0 0 100 100" fill="none" xmlns="http://www.w3.org/2000/svg">
<rect width="100" height="100" rx="14" fill="#1E1E1E"/>
<g clip-path="url(#clip0_1_12798)">
<path d="M46.2812 41.4998H17.0625C16.425 41.4998 16 40.9686 16 40.4373V33.6373C16 30.6623 18.4437 28.1123 21.525 28.1123H49.8937C50.5312 28.1123 50.9563 28.6436 50.9563 29.1748C50.9563 29.7061 50.425 30.2373 49.8937 30.2373H21.4187C19.6125 30.2373 18.125 31.7248 18.125 33.5311V39.2686H46.2812C46.9188 39.2686 47.3438 39.7998 47.3438 40.3311C47.3438 40.8623 46.9188 41.4998 46.2812 41.4998V41.4998Z" fill="#FFB43A"/>
<path d="M21.4187 80.8123C19.9312 80.8123 18.55 80.2811 17.5938 79.2186C16.5312 78.1561 16 76.7748 16 75.2873V40.3311C16 39.6936 16.5312 39.2686 17.0625 39.2686H46.2812C46.9188 39.2686 47.3438 39.7998 47.3438 40.3311C47.3438 40.8623 46.8125 41.3936 46.2812 41.3936H18.125V75.1811C18.125 76.0311 18.4438 76.8811 19.0813 77.5186C19.7188 78.1561 20.5687 78.4748 21.4187 78.4748H71.25C73.0563 78.4748 74.5437 76.9873 74.5437 75.1811V53.9311C74.5437 53.2936 75.075 52.8686 75.6062 52.8686C76.1375 52.8686 76.6687 53.3998 76.6687 53.9311V75.1811C76.6687 78.1561 74.225 80.7061 71.1438 80.7061H21.4187V80.8123Z" fill="#FFB43A"/>
<path d="M25.5621 35.8687H23.2246C22.5871 35.8687 22.1621 35.3374 22.1621 34.8062C22.1621 34.2749 22.6934 33.7437 23.2246 33.7437H25.5621C26.1996 33.7437 26.6246 34.2749 26.6246 34.8062C26.6246 35.3374 26.1996 35.8687 25.5621 35.8687Z" fill="white"/>
<path d="M30.7691 35.8687H28.4316C27.7941 35.8687 27.3691 35.3374 27.3691 34.8062C27.3691 34.2749 27.9004 33.7437 28.4316 33.7437H30.7691C31.4066 33.7437 31.8316 34.2749 31.8316 34.8062C31.8316 35.3374 31.4066 35.8687 30.7691 35.8687V35.8687Z" fill="#FFB43A"/>
<path d="M35.9752 35.8687H33.6377C33.0002 35.8687 32.5752 35.3374 32.5752 34.8062C32.5752 34.2749 33.1064 33.7437 33.6377 33.7437H35.9752C36.6127 33.7437 37.0377 34.2749 37.0377 34.8062C37.0377 35.3374 36.6127 35.8687 35.9752 35.8687Z" fill="white"/>
<path d="M42.1373 60.7311H26.6248C24.8186 60.7311 23.3311 59.2437 23.3311 57.4374V48.1937C23.3311 46.3874 24.8186 44.8999 26.6248 44.8999H42.1373C43.9436 44.8999 45.4311 46.3874 45.4311 48.1937V57.4374C45.4311 59.2437 43.9436 60.7311 42.1373 60.7311ZM42.1373 47.0249H26.6248C25.9873 47.0249 25.5623 47.5562 25.5623 48.0874V57.4374C25.5623 58.0749 26.0936 58.4999 26.6248 58.4999H42.1373C42.7748 58.4999 43.1998 57.9687 43.1998 57.4374V48.1937C43.1998 47.5562 42.6686 47.0249 42.1373 47.0249V47.0249Z" fill="white"/>
<path d="M53.2937 54.1436H52.125C51.4875 54.1436 51.0625 53.6123 51.0625 53.0811C51.0625 52.5498 51.5938 52.0186 52.125 52.0186H53.2937C53.9312 52.0186 54.3562 52.5498 54.3562 53.0811C54.3562 53.6123 53.825 54.1436 53.2937 54.1436Z" fill="#FFB43A"/>
<path d="M68.9125 61.1562H52.125C51.4875 61.1562 51.0625 60.625 51.0625 60.0938C51.0625 59.5625 51.5938 59.0312 52.125 59.0312H68.9125C69.55 59.0312 69.975 59.5625 69.975 60.0938C69.975 60.625 69.4437 61.1562 68.9125 61.1562Z" fill="white"/>
<path d="M68.9123 68.1689H23.8623C23.2248 68.1689 22.7998 67.6377 22.7998 67.1064C22.7998 66.5752 23.3311 66.0439 23.8623 66.0439H68.9123C69.5498 66.0439 69.9748 66.5752 69.9748 67.1064C69.9748 67.6377 69.4436 68.1689 68.9123 68.1689Z" fill="#FFB43A"/>
<path d="M68.9123 75.1812H23.8623C23.2248 75.1812 22.7998 74.6499 22.7998 74.1187C22.7998 73.5874 23.3311 73.0562 23.8623 73.0562H68.9123C69.5498 73.0562 69.9748 73.5874 69.9748 74.1187C69.9748 74.6499 69.4436 75.1812 68.9123 75.1812Z" fill="white"/>
<path d="M67.425 54.5687H65.725C64.3437 54.5687 63.175 53.5062 62.9625 52.2312L62.5375 49.575C62.5375 49.3625 62.325 49.2563 62.2187 49.15C61.7937 49.0438 61.475 48.8312 61.05 48.725C60.8375 48.6187 60.7313 48.6187 60.5188 48.725L58.3938 50.3187C57.3313 51.0625 55.7375 50.9562 54.7812 50L53.5062 48.725C52.55 47.7687 52.4437 46.2812 53.1875 45.1125L54.7812 42.9875C54.8875 42.775 54.8875 42.5625 54.7812 42.4562C54.5687 42.1375 54.4625 41.7125 54.25 41.2875C54.1437 41.075 54.0375 40.9688 53.825 40.9688L51.275 40.5438C49.8938 40.3313 48.9375 39.1625 48.9375 37.7812V35.975C48.9375 34.5937 49.8938 33.425 51.275 33.2125L53.825 32.7875C54.0375 32.7875 54.1437 32.575 54.25 32.4688C54.3562 32.0437 54.5687 31.725 54.7812 31.3C54.8875 31.0875 54.8875 30.875 54.7812 30.7687L53.1875 28.6437C52.3375 27.5812 52.55 26.0938 53.4 25.0312L54.675 23.7563C55.6313 22.8 57.225 22.6937 58.2875 23.5437L60.3062 25.1375C60.5187 25.35 60.7312 25.2438 60.8375 25.1375C61.2625 24.925 61.5812 24.8188 62.0062 24.6063C62.2187 24.5 62.325 24.3937 62.4312 24.1812L62.8562 21.525C63.175 20.25 64.3437 19.1875 65.725 19.1875H67.425C68.8062 19.1875 69.975 20.25 70.1875 21.525L70.6125 24.1812C70.6125 24.3937 70.825 24.5 70.9312 24.6063C71.3562 24.7125 71.675 24.925 72.1 25.0312C72.3125 25.1375 72.4187 25.1375 72.6312 25.0312L74.7562 23.4375C75.8187 22.5875 77.4125 22.8 78.3687 23.7563L79.6437 25.0312C80.6 25.9875 80.7062 27.475 79.9625 28.6437L78.3687 30.7687C78.2625 30.9812 78.2625 31.1937 78.3687 31.3C78.5812 31.6187 78.6875 32.0437 78.9 32.4688C79.0062 32.6813 79.1125 32.7875 79.325 32.7875L81.875 33.2125C83.2562 33.425 84.2125 34.5937 84.2125 35.975V37.7812C84.2125 39.1625 83.2562 40.3313 81.875 40.5438L79.325 40.9688C79.1125 40.9688 79.0062 41.1812 78.9 41.2875C78.7937 41.7125 78.5812 42.0312 78.475 42.4562C78.3687 42.6687 78.3687 42.8812 78.475 43.0938L80.0687 45.2188C80.8125 46.2812 80.7062 47.7687 79.8562 48.8312L78.2625 50C77.3062 50.9562 75.7125 51.0625 74.65 50.2125L72.6312 48.6188C72.4187 48.4063 72.2062 48.5125 72.1 48.6188C71.675 48.8313 71.3562 48.9375 70.9312 49.15C70.7187 49.2563 70.6125 49.3625 70.6125 49.575L70.1875 52.2312C69.975 53.5062 68.8062 54.5687 67.425 54.5687V54.5687ZM60.7312 46.3875C61.1562 46.3875 61.5812 46.4937 61.9 46.7062C62.2187 46.8125 62.5375 47.025 62.8562 47.1312C63.8125 47.45 64.45 48.3 64.6625 49.2562L65.0875 51.9125C65.0875 52.2312 65.4062 52.4437 65.6187 52.4437H67.3187C67.6375 52.4437 67.85 52.2313 67.85 52.0188L68.275 49.3625C68.3812 48.4062 69.125 47.5562 70.0812 47.2375C70.4 47.1312 70.7187 47.025 71.0375 46.8125C71.8875 46.3875 73.0562 46.4937 73.9062 47.1312L76.0312 48.725C76.35 48.9375 76.5625 48.8313 76.775 48.6188L78.05 47.3438C78.2625 47.1312 78.2625 46.8125 78.05 46.6L76.4562 44.475C75.8187 43.625 75.7125 42.5625 76.1375 41.7125C76.2437 41.3938 76.4562 41.075 76.5625 40.7562C76.8812 39.8 77.7312 39.0563 78.6875 38.95L81.2375 38.525C81.5562 38.525 81.6625 38.2063 81.6625 37.9938V36.1875C81.6625 35.8687 81.45 35.6562 81.2375 35.6562L78.6875 35.2313C77.7312 35.125 76.8812 34.3812 76.5625 33.425C76.4562 33.1062 76.35 32.7875 76.1375 32.4688C75.7125 31.5125 75.8187 30.45 76.35 29.6L77.9437 27.475C78.1562 27.2625 78.05 26.9438 77.9437 26.7313L76.6687 25.4562C76.5625 25.35 76.35 25.2437 76.2437 25.2437C76.1375 25.2437 76.0312 25.2438 75.925 25.35L73.9062 26.9438C73.1625 27.5813 71.9937 27.6875 71.0375 27.2625C70.7187 27.1563 70.4 26.9437 70.0812 26.8375C69.125 26.5187 68.4875 25.6687 68.275 24.7125L67.85 22.0562C67.85 21.7375 67.5312 21.525 67.3187 21.525H65.6187C65.3 21.525 65.0875 21.7375 65.0875 21.95L64.7687 24.5C64.6625 25.4562 63.9187 26.3062 62.9625 26.625C62.6437 26.7313 62.325 26.8375 62.0062 27.05C61.1562 27.475 59.9875 27.3688 59.1375 26.7313L57.0125 25.1375C56.6937 24.8188 56.4813 25.0312 56.2688 25.2437L54.9938 26.5187C54.7813 26.7312 54.7813 27.05 54.9938 27.2625L56.5875 29.3875C57.1187 30.2375 57.225 31.3 56.8 32.15C56.6938 32.4687 56.4812 32.7875 56.375 33.1063C56.0562 34.0625 55.2062 34.8062 54.25 34.9125L51.7 35.3375C51.3812 35.3375 51.275 35.6563 51.275 35.8688V37.675C51.275 37.9937 51.4875 38.2062 51.7 38.2062L54.25 38.6312C55.2062 38.7375 56.0562 39.4813 56.375 40.4375C56.4812 40.7563 56.5875 41.075 56.8 41.3937C57.225 42.35 57.1187 43.4125 56.4812 44.2625L54.8875 46.3875C54.675 46.6 54.7812 46.9187 54.8875 47.1312L56.1625 48.4062C56.375 48.6188 56.5875 48.725 56.9062 48.5125L59.0312 46.9188C59.5625 46.6 60.2 46.3875 60.7312 46.3875V46.3875Z" fill="white"/>
<path d="M66.5748 43.9436C62.6436 43.9436 59.4561 40.7561 59.4561 36.8248C59.4561 32.8936 62.6436 29.7061 66.5748 29.7061C70.5061 29.7061 73.6936 32.8936 73.6936 36.8248C73.6936 40.7561 70.5061 43.9436 66.5748 43.9436ZM66.5748 31.9373C63.8123 31.9373 61.6873 34.1686 61.6873 36.8248C61.6873 39.5873 63.9186 41.7123 66.5748 41.7123C69.2311 41.7123 71.4623 39.4811 71.4623 36.8248C71.4623 34.1686 69.2311 31.9373 66.5748 31.9373V31.9373Z" fill="#FFB43A"/>
</g>
<defs>
<clipPath id="clip0_1_12798">
<rect width="68" height="68" fill="white" transform="translate(16 16)"/>
</clipPath>
</defs>
</svg>
