<svg width="100" height="100" viewBox="0 0 100 100" fill="none" xmlns="http://www.w3.org/2000/svg">
<rect width="100" height="100" rx="14" fill="#1E1E1E"/>
<path d="M50.4999 53.549C52.7323 53.549 54.5487 51.7327 54.5487 49.5003C54.5487 48.7748 54.356 48.094 54.0204 47.5045L58.4428 43.0821C58.8638 42.6611 58.8638 41.9785 58.4428 41.5575C58.0215 41.1363 57.339 41.1366 56.918 41.5575L52.4958 45.9798C51.9063 45.6442 51.2254 45.4515 50.4999 45.4515C48.2675 45.4515 46.4512 47.2679 46.4512 49.5003C46.4512 51.7327 48.2675 53.549 50.4999 53.549ZM50.4999 47.6078C51.5434 47.6078 52.3924 48.4568 52.3924 49.5003C52.3924 50.5438 51.5434 51.3928 50.4999 51.3928C49.4564 51.3928 48.6074 50.5438 48.6074 49.5003C48.6074 48.4566 49.4564 47.6078 50.4999 47.6078Z" fill="#FFB43A"/>
<path d="M74.1328 25.8672C67.8202 19.5545 59.4273 16.0781 50.5 16.0781C41.5727 16.0781 33.1798 19.5545 26.8672 25.8672C20.5547 32.1798 17.0781 40.5727 17.0781 49.5V53.8772C17.0781 54.3233 17.3528 54.7231 17.7689 54.8833L22.6041 56.7445C23.2732 59.3271 24.297 61.7967 25.6533 64.1001L23.5492 68.8379C23.3682 69.2455 23.4567 69.7224 23.7722 70.0379L29.9627 76.2281C30.278 76.5433 30.7547 76.6318 31.1625 76.451L35.9018 74.3461C38.2051 75.7022 40.6736 76.7258 43.2551 77.3947L45.1168 82.2311C45.2769 82.6472 45.6769 82.9219 46.1229 82.9219H54.8773C55.3234 82.9219 55.7232 82.6472 55.8835 82.2311L57.7446 77.3961C60.3272 76.727 62.7966 75.7032 65.1001 74.3467L69.8379 76.451C70.2456 76.6322 70.7225 76.5433 71.0379 76.2279L77.2281 70.0375C77.5434 69.7221 77.632 69.2452 77.451 68.8377L75.3461 64.0982C76.7023 61.7947 77.7259 59.3262 78.3947 56.7449L83.2311 54.8832C83.6472 54.7231 83.9219 54.3231 83.9219 53.8771V49.5C83.9219 40.5727 80.4453 32.1798 74.1328 25.8672ZM70.353 48.4219C70.2007 45.5869 69.452 42.9079 68.23 40.5083L78.0942 34.8132C80.2763 38.8966 81.5779 43.5175 81.745 48.4219H70.353ZM30.6469 48.4219H19.255C19.4221 43.5175 20.7237 38.8966 22.9058 34.8132L32.7698 40.5083C31.5479 42.9079 30.799 45.5868 30.6469 48.4219ZM50.5 31.7736C60.2743 31.7736 68.2263 39.7256 68.2263 49.5C68.2263 59.2743 60.2743 67.2263 50.5 67.2263C40.7257 67.2263 32.7737 59.2741 32.7736 49.5C32.7736 39.7256 40.7257 31.7736 50.5 31.7736ZM51.578 29.6469V18.255C56.4824 18.4221 61.1032 19.7235 65.1866 21.9057L59.4916 31.7697C57.0919 30.5479 54.4129 29.799 51.578 29.6469ZM49.4217 29.6469C46.5868 29.7992 43.9078 30.5479 41.5083 31.7698L35.8132 21.9057C39.8965 19.7235 44.5173 18.4221 49.4217 18.255V29.6469ZM77.0127 32.9478L67.1483 38.643C65.6388 36.3362 63.6635 34.361 61.3567 32.8515L67.0519 22.987C71.0776 25.5094 74.4903 28.9221 77.0127 32.9478ZM33.948 22.9872L39.6431 32.8516C37.3364 34.3611 35.3611 36.3364 33.8516 38.6431L23.9872 32.948C26.5096 28.9221 29.9222 25.5094 33.948 22.9872ZM77.0965 54.934C76.7647 55.0616 76.5173 55.3448 76.4351 55.6905C75.7819 58.4348 74.6985 61.0482 73.2147 63.4577C73.0284 63.7604 73.0033 64.1355 73.1475 64.4605L75.1798 69.0363L70.0366 74.1798L65.4624 72.1482C65.1377 72.004 64.7624 72.0289 64.4594 72.2156C62.0502 73.6992 59.4363 74.7828 56.6905 75.4362C56.3446 75.5184 56.0615 75.7658 55.9339 76.0976L54.1371 80.7656H46.8632L45.0658 76.0965C44.9382 75.7649 44.6551 75.5173 44.3094 75.4351C41.5646 74.7816 38.9514 73.6982 36.5422 72.2147C36.2396 72.0285 35.8643 72.0032 35.5394 72.1475L30.9637 74.1798L25.8202 69.0366L27.8517 64.4624C27.9959 64.1374 27.9708 63.7622 27.7844 63.4596C26.3008 61.0502 25.2172 58.4363 24.5637 55.6902C24.4815 55.3445 24.2339 55.0614 23.9023 54.9337L19.2344 53.1369V50.5781L30.6469 50.578C31.2088 61.0419 39.8984 69.3824 50.5 69.3824C61.1016 69.3824 69.7912 61.0417 70.353 50.578L81.7656 50.5781V53.1366L77.0965 54.934Z" fill="#FFB43A"/>
<path opacity="0.02" d="M70.3525 48.4221C70.2002 45.5872 69.4514 42.9082 68.2295 40.5085L78.0937 34.8135C80.2758 38.8969 81.5774 43.5177 81.7445 48.4221H70.3525Z" fill="white"/>
<path opacity="0.05" d="M77.0124 32.9481L67.148 38.6433C65.6385 36.3365 63.6632 34.3613 61.3564 32.8517L67.0516 22.9873C71.0774 25.5097 74.49 28.9224 77.0124 32.9481Z" fill="white"/>
<path opacity="0.08" d="M51.5771 29.6468V18.2549C56.4815 18.422 61.1024 19.7234 65.1858 21.9055L59.4907 31.7696C57.0911 30.5478 54.4121 29.7989 51.5771 29.6468Z" fill="white"/>
<path opacity="0.12" d="M49.421 29.6468C46.5861 29.799 43.9071 30.5478 41.5076 31.7697L35.8125 21.9055C39.8958 19.7234 44.5166 18.422 49.421 18.2549V29.6468Z" fill="white"/>
<path opacity="0.15" d="M33.9471 22.9873L39.6423 32.8517C37.3355 34.3613 35.3603 36.3365 33.8508 38.6433L23.9863 32.9481C26.5087 28.9222 29.9214 25.5096 33.9471 22.9873Z" fill="white"/>
<path opacity="0.2" d="M30.6468 48.4221H19.2549C19.422 43.5177 20.7236 38.8969 22.9057 34.8135L32.7697 40.5085C31.5478 42.9082 30.7989 45.587 30.6468 48.4221Z" fill="white"/>
<circle cx="50.5" cy="49.5" r="18.75" stroke="white" stroke-width="2.5"/>
</svg>
