<svg width="29" height="29" viewBox="0 0 29 29" fill="none" xmlns="http://www.w3.org/2000/svg">
<path d="M8.97476 22.8471C9.9769 22.8471 10.7979 23.6856 10.7979 24.7214C10.7979 25.7449 9.9769 26.5834 8.97476 26.5834C7.96055 26.5834 7.13953 25.7449 7.13953 24.7214C7.13953 23.6856 7.96055 22.8471 8.97476 22.8471ZM22.5579 22.8471C23.5601 22.8471 24.3811 23.6856 24.3811 24.7214C24.3811 25.7449 23.5601 26.5834 22.5579 26.5834C21.5437 26.5834 20.7227 25.7449 20.7227 24.7214C20.7227 23.6856 21.5437 22.8471 22.5579 22.8471ZM3.35833 2.41689L3.48137 2.42731L6.361 2.87C6.77151 2.94522 7.07336 3.28925 7.10958 3.70851L7.33899 6.47069C7.37521 6.86652 7.68913 7.16247 8.0755 7.16247H24.3813C25.1178 7.16247 25.6008 7.42142 26.0838 7.98866C26.5667 8.55589 26.6512 9.36974 26.5426 10.1084L25.3955 18.1976C25.1782 19.7526 23.8742 20.8981 22.3408 20.8981H9.16819C7.56236 20.8981 6.23422 19.6416 6.10141 18.0139L4.99061 4.57169L3.16745 4.25108C2.68449 4.16477 2.34642 3.68385 2.43094 3.1906C2.51546 2.68626 2.98634 2.35209 3.48137 2.42731L3.35833 2.41689ZM20.409 11.7238H17.0645C16.5574 11.7238 16.159 12.1307 16.159 12.6486C16.159 13.1542 16.5574 13.5734 17.0645 13.5734H20.409C20.9161 13.5734 21.3146 13.1542 21.3146 12.6486C21.3146 12.1307 20.9161 11.7238 20.409 11.7238Z" fill="white"/>
</svg>
