<svg width="60" height="61" viewBox="0 0 60 61" fill="none" xmlns="http://www.w3.org/2000/svg">
<path d="M33.1312 5.51709C33.75 5.51709 34.2698 6.04209 34.2698 6.66709V14.7171C34.2698 19.2921 37.9827 23.0421 42.5371 23.0671C44.3936 23.0671 45.9035 23.0921 47.0173 23.0921L47.439 23.0902C48.1999 23.0845 49.2244 23.0671 50.1114 23.0671C50.7549 23.0671 51.25 23.5671 51.25 24.1921V44.2921C51.25 50.4921 46.25 55.5171 40.1114 55.5171H20.4332C13.9728 55.5171 8.75 50.2421 8.75 43.7421V16.7921C8.75 10.5921 13.7252 5.51709 19.9134 5.51709H33.1312ZM29.0965 22.3671C28.0817 22.3671 27.2401 23.1921 27.2401 24.2421V36.2921L23.3045 32.2921C22.5866 31.5671 21.4233 31.5671 20.7054 32.2921C19.9876 33.0171 19.9876 34.1921 20.7054 34.9421L27.7847 42.1171C27.9579 42.2921 28.1559 42.4171 28.3787 42.5171C28.6015 42.6171 28.849 42.6671 29.0965 42.6671C29.3441 42.6671 29.5668 42.6171 29.7896 42.5171C30.0124 42.4171 30.2104 42.2921 30.3837 42.1171L37.4876 34.9421C38.2054 34.1921 38.2054 33.0171 37.4629 32.2921C36.745 31.5671 35.5817 31.5671 34.8639 32.2921L30.9282 36.2921V24.2421C30.9282 23.1921 30.1114 22.3671 29.0965 22.3671ZM37.8626 7.78234C37.8626 6.70484 39.1572 6.16984 39.8948 6.94734C42.573 9.75734 47.2488 14.6698 49.8626 17.4148C50.5854 18.1723 50.0557 19.4298 49.0111 19.4323C46.979 19.4398 44.5804 19.4323 42.8552 19.4148C40.1176 19.4148 37.8626 17.1373 37.8626 14.3723V7.78234Z" fill="white"/>
<path d="M37.8633 7.78223C37.8633 6.70473 39.1578 6.16973 39.8955 6.94723C42.5737 9.75723 47.2494 14.6697 49.8633 17.4147C50.5861 18.1722 50.0564 19.4297 49.0118 19.4322C46.9796 19.4397 44.5811 19.4322 42.8559 19.4147C40.1182 19.4147 37.8633 17.1372 37.8633 14.3722V7.78223Z" fill="white"/>
</svg>
