<svg width="20" height="20" viewBox="0 0 20 20" fill="none" xmlns="http://www.w3.org/2000/svg">
<path d="M11.045 1.66675C11.2596 1.66675 11.4246 1.84175 11.4246 2.05008V4.73341C11.4246 6.25841 12.6704 7.50841 14.1803 7.51675C14.8074 7.51675 15.3025 7.52508 15.682 7.52508L15.8226 7.52446C16.0762 7.52253 16.4177 7.51675 16.7133 7.51675C16.9196 7.51675 17.0846 7.68341 17.0846 7.89175V14.5917C17.0846 16.6584 15.4262 18.3334 13.38 18.3334H6.81236C4.66714 18.3334 2.91797 16.5751 2.91797 14.4084V5.42508C2.91797 3.35841 4.58464 1.66675 6.63909 1.66675H11.045ZM11.9279 12.4167H7.43942C7.10114 12.4167 6.82061 12.6917 6.82061 13.0334C6.82061 13.3751 7.10114 13.6584 7.43942 13.6584H11.9279C12.2662 13.6584 12.5467 13.3751 12.5467 13.0334C12.5467 12.6917 12.2662 12.4167 11.9279 12.4167ZM10.2282 8.25008H7.43942C7.10114 8.25008 6.82061 8.53341 6.82061 8.87508C6.82061 9.21675 7.10114 9.49175 7.43942 9.49175H10.2282C10.5665 9.49175 10.847 9.21675 10.847 8.87508C10.847 8.53341 10.5665 8.25008 10.2282 8.25008ZM12.6269 2.42175C12.6269 2.06258 13.0584 1.88425 13.3051 2.14341C14.197 3.08008 15.7556 4.71758 16.6269 5.63258C16.8678 5.88508 16.6912 6.30425 16.3439 6.30508C15.6657 6.30758 14.8662 6.30508 14.2911 6.29925C13.3785 6.29925 12.6269 5.54008 12.6269 4.61841V2.42175Z" fill="white"/>
</svg>
