<svg width="32" height="32" viewBox="0 0 32 32" fill="none" xmlns="http://www.w3.org/2000/svg">
<path fill-rule="evenodd" clip-rule="evenodd" d="M30.2917 16.0008C30.2917 24.0901 23.7351 30.6466 15.6458 30.6466C7.55658 30.6466 1 24.0901 1 16.0008C1 7.91156 7.55658 1.35498 15.6458 1.35498C23.7351 1.35498 30.2917 7.91156 30.2917 16.0008Z" stroke="white" stroke-width="1.5" stroke-linecap="round" stroke-linejoin="round"/>
<path opacity="0.4" d="M15.2614 22.2727V9.54541H16.0767V22.2727H15.2614ZM18.0057 13.3636C17.946 12.8598 17.7041 12.4687 17.2798 12.1903C16.8556 11.9119 16.3352 11.7727 15.7188 11.7727C15.268 11.7727 14.8736 11.8456 14.5355 11.9914C14.2008 12.1373 13.9389 12.3378 13.75 12.593C13.5644 12.8482 13.4716 13.1382 13.4716 13.463C13.4716 13.7348 13.5362 13.9685 13.6655 14.164C13.7981 14.3563 13.9671 14.517 14.1726 14.6463C14.3781 14.7722 14.5935 14.8766 14.8189 14.9595C15.0443 15.039 15.2514 15.1036 15.4403 15.1534L16.4744 15.4318C16.7396 15.5014 17.0346 15.5975 17.3594 15.7201C17.6875 15.8428 18.0007 16.0101 18.299 16.2223C18.6006 16.4311 18.8492 16.6995 19.0447 17.0277C19.2403 17.3558 19.3381 17.7585 19.3381 18.2358C19.3381 18.7859 19.1939 19.2831 18.9055 19.7272C18.6205 20.1714 18.2029 20.5243 17.6527 20.7862C17.1058 21.048 16.4413 21.1789 15.6591 21.1789C14.9299 21.1789 14.2985 21.0613 13.7649 20.826C13.2346 20.5906 12.817 20.2625 12.5121 19.8416C12.2105 19.4206 12.0398 18.9318 12 18.375H13.2727C13.3059 18.7594 13.4351 19.0776 13.6605 19.3295C13.8892 19.5781 14.1776 19.7637 14.5256 19.8863C14.8769 20.0056 15.2547 20.0653 15.6591 20.0653C16.1297 20.0653 16.5523 19.9891 16.9268 19.8366C17.3014 19.6808 17.598 19.4654 17.8168 19.1903C18.0355 18.9119 18.1449 18.5871 18.1449 18.2159C18.1449 17.8778 18.0504 17.6027 17.8615 17.3906C17.6726 17.1785 17.424 17.0061 17.1158 16.8735C16.8075 16.741 16.4744 16.625 16.1165 16.5255L14.8636 16.1676C14.0682 15.9389 13.4384 15.6124 12.9744 15.1882C12.5104 14.7639 12.2784 14.2088 12.2784 13.5227C12.2784 12.9526 12.4325 12.4554 12.7408 12.0312C13.0523 11.6036 13.4699 11.2722 13.9936 11.0369C14.5206 10.7983 15.1089 10.6789 15.7585 10.6789C16.4148 10.6789 16.9981 10.7966 17.5085 11.0319C18.0189 11.2639 18.4233 11.5821 18.7216 11.9865C19.0232 12.3908 19.1823 12.8499 19.1989 13.3636H18.0057Z" fill="white"/>
</svg>
