<svg width="72" height="72" viewBox="0 0 72 72" fill="none" xmlns="http://www.w3.org/2000/svg">
<g clip-path="url(#clip0_1261_3303)">
<path d="M23.2966 60.0171C24.8386 58.6682 25.9221 56.8723 26.3961 54.8787L33.7354 28.9637H32.593C29.9391 28.9555 27.6313 30.7805 27.0265 33.3646L27.013 33.4154L19.4618 60.0794C18.9877 62.0731 17.9042 63.8689 16.3623 65.2179H57.9236C60.654 65.2125 63.0018 63.2825 63.5361 60.6049L63.5462 60.5582L63.6756 60.0171H23.2966Z" fill="#2B2B2B"/>
<path d="M49.165 21.1056H48.7641C48.1743 17.8951 45.3782 15.5628 42.1142 15.5581H14.2035C9.70567 15.5628 6.0604 19.2081 6.05566 23.7059V65.8293H8.48268V23.7059C8.48607 20.5476 11.0451 17.9885 14.2035 17.9851H42.1142C44.0394 17.9872 45.733 19.2575 46.2748 21.1056H21.1378C16.64 21.1103 12.9954 24.7556 12.99 29.2534V65.3092H15.417V29.2534C15.4211 26.095 17.9801 23.536 21.1378 23.5326H49.165C51.4931 23.5353 53.3798 25.4219 53.3825 27.7501H55.8095C55.8054 24.0818 52.8326 21.1096 49.165 21.1056Z" fill="white"/>
<path d="M63.8521 26.5366H59.277V19.3172C59.2716 14.5843 55.4361 10.7488 50.7032 10.7434H38.6738C37.2937 10.7434 35.9597 10.2443 34.9182 9.33754L31.0853 6.00175C29.6023 4.71036 27.7021 3.99932 25.7356 4H8.57311C3.84029 4.00542 0.00541745 7.84097 0 12.5738V57.7776C0.00609462 63.0231 4.11117 67.3489 9.34916 67.6313V67.6448H57.924C61.8029 67.6381 65.1421 64.9023 65.912 61.0999L71.8353 36.3097L71.8455 36.2629C72.3182 33.8718 71.6945 31.394 70.1471 29.5108C68.5991 27.6275 66.2899 26.5366 63.8521 26.5366V26.5366ZM9.8672 65.2178C5.7601 65.2131 2.43176 61.8847 2.42702 57.7776V12.5738C2.43108 9.18043 5.18043 6.4304 8.57379 6.42702H25.7363C27.117 6.42702 28.4511 6.9261 29.4926 7.83217L33.3254 11.1686C34.8085 12.4593 36.7086 13.1704 38.6745 13.1704H50.7032C54.0966 13.1744 56.8466 15.9238 56.8507 19.3172V26.5366H32.5934C28.8235 26.5251 25.5426 29.1105 24.6711 32.7782L17.1191 59.4428L17.1063 59.4936C16.3194 62.8538 13.3181 65.2266 9.8672 65.2178V65.2178ZM69.4693 35.7699L63.5467 60.5581L63.5365 60.6049C63.0022 63.2824 60.6544 65.2124 57.924 65.2178H16.3627C17.9047 63.8689 18.9882 62.073 19.4622 60.0794L27.0134 33.4154L27.027 33.3646C27.6317 30.7805 29.9395 28.9555 32.5934 28.9636H63.8521C65.5599 28.9636 67.1784 29.7261 68.2653 31.0432C69.3514 32.3603 69.7936 34.0939 69.4693 35.7699Z" fill="#FFB43A"/>
</g>
<defs>
<clipPath id="clip0_1261_3303">
<rect width="72" height="72" fill="white"/>
</clipPath>
</defs>
</svg>
