<svg width="40" height="40" viewBox="0 0 40 40" fill="none" xmlns="http://www.w3.org/2000/svg">
<path d="M27.076 3.67334C32.6095 3.67334 36.3269 7.55597 36.3269 13.3333V26.6664C36.3269 32.4438 32.6095 36.3264 27.0743 36.3264H12.9247C7.39121 36.3264 3.67383 32.4438 3.67383 26.6664V13.3333C3.67383 7.55597 7.39121 3.67334 12.9247 3.67334H27.076ZM28.8764 20.8979C27.1263 19.8061 25.7751 21.3394 25.4107 21.8297C25.0593 22.3031 24.7573 22.8254 24.4388 23.3477C23.6606 24.6367 22.7691 26.1227 21.2258 26.9871C18.9832 28.2288 17.2807 27.0848 16.0559 26.2525C15.5962 25.9425 15.1497 25.6493 14.7048 25.4538C13.6081 24.9804 12.6214 25.5195 11.1569 27.3797C10.3886 28.3518 9.62682 29.3156 8.85519 30.276C8.39386 30.8505 8.50385 31.7368 9.12608 32.1209C10.1193 32.7325 11.331 33.0611 12.7002 33.0611H26.4598C27.2363 33.0611 28.0145 32.9549 28.7566 32.7123C30.4279 32.1664 31.7544 30.9162 32.4473 29.265C33.0317 27.8767 33.3157 26.1918 32.769 24.79C32.5868 24.325 32.3143 23.892 31.9317 23.5112C30.9286 22.5154 29.9912 21.5853 28.8764 20.8979ZM14.2842 10.204C12.0334 10.204 10.2044 12.0353 10.2044 14.2856C10.2044 16.5358 12.0334 18.3672 14.2842 18.3672C16.5334 18.3672 18.364 16.5358 18.364 14.2856C18.364 12.0353 16.5334 10.204 14.2842 10.204Z" fill="#FFB43A"/>
</svg>
