<svg width="24" height="24" viewBox="0 0 24 24" fill="none" xmlns="http://www.w3.org/2000/svg">
<path d="M23.933 7.05204C23.8754 5.77422 23.669 4.89992 23.3761 4.13611C23.0689 3.34828 22.6608 2.67574 21.9934 2.01281C21.3261 1.34988 20.6588 0.931946 19.8714 0.629304C19.1081 0.331465 18.2343 0.129704 16.9572 0.0720576C15.6754 0.0144115 15.2673 0 12.0122 0C8.7524 0 8.34431 0.0144115 7.06726 0.0720576C5.7902 0.129704 4.91643 0.336269 4.15308 0.629304C3.36092 0.93675 2.68878 1.34508 2.02625 2.01281C1.36372 2.68054 0.946035 3.34828 0.643574 4.13611C0.350716 4.89992 0.144274 5.77422 0.0866628 7.05204C0.0290513 8.33467 0.0146484 8.743 0.0146484 12C0.0146484 15.2618 0.0290513 15.6701 0.0866628 16.948C0.144274 18.2258 0.350716 19.1001 0.643574 19.8639C0.950836 20.6517 1.35892 21.3243 2.02625 21.9872C2.68878 22.6549 3.36092 23.0681 4.14827 23.3707C4.91163 23.6685 5.7854 23.8703 7.06246 23.9279C8.34431 23.9856 8.7524 24 12.0074 24C15.2673 24 15.6754 23.9856 16.9524 23.9279C18.2295 23.8703 19.1033 23.6637 19.8666 23.3707C20.654 23.0633 21.3261 22.6549 21.9886 21.9872C22.6512 21.3195 23.0689 20.6517 23.3713 19.8639C23.669 19.1001 23.8706 18.2258 23.9282 16.948C23.9858 15.6653 24.0002 15.257 24.0002 12C24.0002 8.743 23.9906 8.32986 23.933 7.05204ZM21.7774 16.8519C21.7246 18.024 21.5278 18.6629 21.3645 19.0809C21.1485 19.6381 20.8844 20.0416 20.4619 20.4644C20.0395 20.8871 19.641 21.1417 19.0793 21.3675C18.6568 21.5308 18.0182 21.7278 16.8516 21.7806C15.589 21.8383 15.2097 21.8527 12.0026 21.8527C8.7956 21.8527 8.41633 21.8383 7.15368 21.7806C5.98224 21.7278 5.34371 21.5308 4.92603 21.3675C4.36912 21.1513 3.96584 20.8871 3.54335 20.4644C3.12087 20.0416 2.86642 19.6429 2.64077 19.0809C2.47754 18.6581 2.2807 18.0192 2.22789 16.8519C2.17028 15.5885 2.15588 15.209 2.15588 12C2.15588 8.79103 2.17028 8.41153 2.22789 7.14812C2.2807 5.97598 2.47754 5.33707 2.64077 4.91914C2.85682 4.36189 3.12087 3.95837 3.54335 3.53563C3.96584 3.11289 4.36432 2.85829 4.92603 2.63251C5.34852 2.46918 5.98704 2.27222 7.15368 2.21938C8.41633 2.16173 8.7956 2.14732 12.0026 2.14732C15.2097 2.14732 15.589 2.16173 16.8516 2.21938C18.0231 2.27222 18.6616 2.46918 19.0793 2.63251C19.6362 2.84868 20.0395 3.11289 20.4619 3.53563C20.8844 3.95837 21.1389 4.35709 21.3645 4.91914C21.5278 5.34187 21.7246 5.98079 21.7774 7.14812C21.835 8.41153 21.8494 8.79103 21.8494 12C21.8494 15.209 21.8302 15.5885 21.7774 16.8519Z" fill="#ffffff" opacity="0.6" />
<path d="M12.0023 5.83203C8.59364 5.83203 5.83789 8.59424 5.83789 12.0002C5.83789 15.4109 8.59844 18.1683 12.0023 18.1683C15.4062 18.1683 18.1668 15.4013 18.1668 12.0002C18.1668 8.58944 15.411 5.83203 12.0023 5.83203ZM12.0023 16.0018C9.79388 16.0018 8.00312 14.2099 8.00312 12.0002C8.00312 9.7904 9.79388 7.99856 12.0023 7.99856C14.2108 7.99856 16.0015 9.7904 16.0015 12.0002C16.0015 14.2099 14.2108 16.0018 12.0023 16.0018Z" fill="#ffffff" opacity="0.6" />
<path d="M18.4071 7.0327C19.2025 7.0327 19.8474 6.38747 19.8474 5.59154C19.8474 4.79562 19.2025 4.15039 18.4071 4.15039C17.6116 4.15039 16.9668 4.79562 16.9668 5.59154C16.9668 6.38747 17.6116 7.0327 18.4071 7.0327Z" fill="#ffffff" opacity="0.6" />
</svg>
