<svg width="52" height="52" viewBox="0 0 52 52" fill="none" xmlns="http://www.w3.org/2000/svg">
<path fill-rule="evenodd" clip-rule="evenodd" d="M49.3151 38.1605V9.02951C49.3132 8.23785 48.9979 7.47914 48.4381 6.91935C47.8783 6.35956 47.1196 6.04424 46.3279 6.04236H5.67206C4.8804 6.04424 4.12169 6.35956 3.5619 6.91935C3.0021 7.47914 2.68678 8.23785 2.68491 9.02951V38.1605H49.3151ZM15.5349 39.8938L16.2763 42.1759H34.6957L35.4371 39.8938H15.5349ZM37.2563 39.8938H52V41.6262C51.9959 42.7737 51.5382 43.873 50.7268 44.6844C49.9154 45.4958 48.8161 45.9535 47.6686 45.9575H4.33144C3.18396 45.9535 2.08463 45.4958 1.27321 44.6845C0.461798 43.8731 0.0041216 42.7738 0 41.6263L0 39.8938H13.7158L14.8085 43.2567C14.8562 43.4433 14.9646 43.6087 15.1167 43.7269C15.2688 43.845 15.4559 43.9092 15.6485 43.9092H35.3234V43.9077C35.5061 43.9077 35.684 43.8498 35.8318 43.7424C35.9796 43.6351 36.0896 43.4837 36.1461 43.31L37.2563 39.8938ZM29.9932 14.5548H22.0068V14.3392C22.0068 13.2801 22.4275 12.2644 23.1764 11.5156C23.9252 10.7667 24.9409 10.346 26 10.346C27.0591 10.346 28.0748 10.7667 28.8236 11.5156C29.5725 12.2644 29.9932 13.2801 29.9932 14.3392V14.5548ZM20.2737 14.5548V14.3392C20.2801 12.8246 20.8862 11.3742 21.9595 10.3055C23.0327 9.23675 24.4856 8.63672 26.0003 8.63672C27.5149 8.63672 28.9678 9.23675 30.041 10.3055C31.1143 11.3742 31.7204 12.8246 31.7268 14.3392V14.5548H35.365C35.5948 14.5548 35.8152 14.6462 35.9777 14.8087C36.1403 14.9712 36.2316 15.1916 36.2316 15.4215V31.4357C36.2289 32.5367 35.7903 33.5918 35.0118 34.3702C34.2332 35.1487 33.1781 35.5871 32.0771 35.5896H19.9232C18.8222 35.5871 17.7671 35.1487 16.9885 34.3702C16.21 33.5918 15.7714 32.5367 15.7687 31.4357V15.4215C15.7687 15.1916 15.86 14.9712 16.0226 14.8087C16.1851 14.6462 16.4055 14.5548 16.6353 14.5548H20.2737ZM22.0071 19.4078V16.2881H29.9935V19.4078C29.9935 19.6376 30.0848 19.8581 30.2474 20.0206C30.4099 20.1831 30.6303 20.2744 30.8602 20.2744C31.09 20.2744 31.3104 20.1831 31.473 20.0206C31.6355 19.8581 31.7268 19.6376 31.7268 19.4078V16.2881H34.4982V31.4357C34.4957 32.0771 34.2398 32.6915 33.7863 33.145C33.3328 33.5985 32.7184 33.8544 32.0771 33.8569H19.9232C19.2818 33.8544 18.6675 33.5985 18.2139 33.145C17.7604 32.6915 17.5045 32.0771 17.502 31.4357V16.2881H20.2734V19.4078C20.2759 19.636 20.3683 19.8541 20.5305 20.0146C20.6928 20.1751 20.9118 20.2651 21.1401 20.2651C21.3683 20.2651 21.5874 20.1751 21.7496 20.0146C21.9119 19.8541 22.0046 19.636 22.0071 19.4078Z" fill="white"/>
<path fill-rule="evenodd" clip-rule="evenodd" d="M29.9932 14.5548H22.0068V14.3392C22.0068 13.2801 22.4275 12.2644 23.1764 11.5155C23.9252 10.7667 24.9409 10.3459 26 10.3459C27.0591 10.3459 28.0748 10.7667 28.8236 11.5155C29.5725 12.2644 29.9932 13.2801 29.9932 14.3392V14.5548ZM22.0071 19.4078V16.2881H29.9935V19.4078C29.9935 19.6376 30.0848 19.858 30.2474 20.0206C30.4099 20.1831 30.6303 20.2744 30.8602 20.2744C31.09 20.2744 31.3104 20.1831 31.473 20.0206C31.6355 19.858 31.7268 19.6376 31.7268 19.4078V16.2881H34.4982V31.4357C34.4957 32.0771 34.2398 32.6914 33.7863 33.1449C33.3328 33.5984 32.7184 33.8543 32.0771 33.8569H19.9232C19.2818 33.8543 18.6675 33.5985 18.2139 33.1449C17.7604 32.6914 17.5045 32.0771 17.502 31.4357V16.2881H20.2734V19.4078C20.2759 19.636 20.3683 19.854 20.5305 20.0146C20.6928 20.1751 20.9118 20.2651 21.1401 20.2651C21.3683 20.2651 21.5874 20.1751 21.7496 20.0146C21.9119 19.854 22.0046 19.636 22.0071 19.4078Z" fill="#FFB43A"/>
</svg>
