<svg width="129" height="121" viewBox="0 0 129 121" fill="none" xmlns="http://www.w3.org/2000/svg">
<path d="M70.1275 116.515C102.346 116.515 128.465 90.4321 128.465 58.2574C128.465 26.0827 102.346 0 70.1275 0C37.9086 0 11.79 26.0827 11.79 58.2574C11.79 90.4321 37.9086 116.515 70.1275 116.515Z" fill="#303030"/>
<path d="M74.9541 9.89209C74.9541 7.68295 76.745 5.89209 78.9541 5.89209H104.862C107.071 5.89209 108.862 7.68295 108.862 9.89209V30.8767H74.9541V9.89209Z" fill="#F5F5F5"/>
<path d="M39.2617 17.9228C39.2617 15.7137 41.0526 13.9229 43.2617 13.9229H69.1694C71.3786 13.9229 73.1694 15.7137 73.1694 17.9229V30.8767H39.2617V17.9228Z" fill="white"/>
<path d="M34.4375 15.1953C34.4375 9.57362 29.8637 5 24.2422 5H3.39844C1.51955 5 0 6.52023 0 8.39844C0 10.2766 1.51955 11.7969 3.39844 11.7969H24.2422C26.1174 11.7969 27.6406 13.3201 27.6601 15.5705L34.1189 73.6938C30.3344 75.1848 27.6406 78.8571 27.6406 83.1641C27.6406 88.7858 32.2136 93.3567 37.8359 93.3567H41.8601C41.4795 94.4249 41.2344 95.5604 41.2344 96.7578C41.2344 102.38 45.8073 106.953 51.4297 106.953C57.0514 106.953 61.625 102.379 61.625 96.7578C61.625 95.5604 61.3799 94.4249 60.9983 93.3567H82.6414C82.2608 94.4249 82.0156 95.5604 82.0156 96.7578C82.0156 102.38 86.5886 106.953 92.2109 106.953C97.8324 106.953 102.406 102.379 102.406 96.7578C102.406 91.1354 97.8324 86.5625 92.2109 86.5625H37.8359C35.9607 86.5625 34.4375 85.0384 34.4375 83.1641C34.4375 81.2888 35.9607 79.7656 37.8359 79.7656H100.046C105.054 79.7656 109.283 76.1814 110.102 71.2457L115.953 36.1435C116.118 35.1575 115.841 34.152 115.193 33.3885C114.874 33.0118 114.477 32.7092 114.03 32.5018C113.582 32.2943 113.095 32.1871 112.602 32.1875H36.3322L34.4375 15.1953ZM88.8125 49.1797C88.8125 47.3008 90.332 45.7812 92.2109 45.7812C94.0891 45.7812 95.6094 47.3008 95.6094 49.1797V62.7734C95.6094 64.6516 94.0891 66.1719 92.2109 66.1719C90.332 66.1719 88.8125 64.6516 88.8125 62.7734V49.1797ZM68.4219 49.1797C68.4219 47.3008 69.9414 45.7812 71.8203 45.7812C73.6985 45.7812 75.2187 47.3008 75.2187 49.1797V62.7734C75.2187 64.6516 73.6985 66.1719 71.8203 66.1719C69.9414 66.1719 68.4219 64.6516 68.4219 62.7734V49.1797ZM48.0312 49.1797C48.0312 47.3008 49.5508 45.7812 51.4297 45.7812C53.3079 45.7812 54.8281 47.3008 54.8281 49.1797V62.7734C54.8281 64.6516 53.3079 66.1719 51.4297 66.1719C49.5508 66.1719 48.0312 64.6516 48.0312 62.7734V49.1797Z" fill="#F6B12B"/>
<path fill-rule="evenodd" clip-rule="evenodd" d="M19.022 105.078C17.4819 107.058 16.564 109.217 15.4933 111.444C15.2843 111.879 15.4688 112.4 15.9042 112.609C16.3398 112.818 16.8631 112.634 17.0724 112.199C18.0876 110.087 18.9438 108.029 20.4063 106.147C20.7022 105.767 20.6323 105.217 20.2496 104.924C19.8685 104.627 19.3177 104.697 19.022 105.078Z" fill="white"/>
<path fill-rule="evenodd" clip-rule="evenodd" d="M16.274 98.6938C11.0355 100.431 5.57971 103.235 1.16243 106.552C0.776933 106.842 0.700045 107.39 0.991534 107.773C1.28302 108.157 1.83186 108.236 2.21736 107.946C6.48858 104.739 11.7651 102.027 16.8296 100.349C17.2878 100.196 17.5351 99.7021 17.3815 99.246C17.2279 98.7899 16.7322 98.5412 16.274 98.6938Z" fill="white"/>
<path fill-rule="evenodd" clip-rule="evenodd" d="M16.9794 94.5691C13.8193 92.4949 9.87953 91.8899 6.17765 91.8644C5.694 91.8627 5.30027 92.2506 5.29853 92.7299C5.29588 93.2121 5.68649 93.6049 6.16897 93.6093C9.54091 93.6314 13.1408 94.1363 16.0191 96.0249C16.4228 96.2901 16.9659 96.1784 17.2304 95.7775C17.495 95.3768 17.3828 94.8341 16.9794 94.5691Z" fill="white"/>
<ellipse cx="122.012" cy="11.8997" rx="2.97893" ry="2.97485" fill="white"/>
</svg>
