<svg width="56" height="56" viewBox="0 0 56 56" fill="none" xmlns="http://www.w3.org/2000/svg">
<circle cx="28" cy="28" r="27.5" stroke="white"/>
<path fill-rule="evenodd" clip-rule="evenodd" d="M16.75 21.125C16.75 17.8435 16.7851 16.75 21.125 16.75C25.4649 16.75 25.5 17.8435 25.5 21.125C25.5 24.4065 25.5138 25.5 21.125 25.5C16.7362 25.5 16.75 24.4065 16.75 21.125Z" stroke="white" stroke-width="1.5" stroke-linecap="round" stroke-linejoin="round"/>
<path opacity="0.4" fill-rule="evenodd" clip-rule="evenodd" d="M30.5 21.125C30.5 17.8435 30.5351 16.75 34.875 16.75C39.2149 16.75 39.25 17.8435 39.25 21.125C39.25 24.4065 39.2638 25.5 34.875 25.5C30.4862 25.5 30.5 24.4065 30.5 21.125Z" stroke="white" stroke-width="1.5" stroke-linecap="round" stroke-linejoin="round"/>
<path fill-rule="evenodd" clip-rule="evenodd" d="M16.75 34.875C16.75 31.5935 16.7851 30.5 21.125 30.5C25.4649 30.5 25.5 31.5935 25.5 34.875C25.5 38.1565 25.5138 39.25 21.125 39.25C16.7362 39.25 16.75 38.1565 16.75 34.875Z" stroke="white" stroke-width="1.5" stroke-linecap="round" stroke-linejoin="round"/>
<path fill-rule="evenodd" clip-rule="evenodd" d="M30.5 34.875C30.5 31.5935 30.5351 30.5 34.875 30.5C39.2149 30.5 39.25 31.5935 39.25 34.875C39.25 38.1565 39.2638 39.25 34.875 39.25C30.4862 39.25 30.5 38.1565 30.5 34.875Z" stroke="white" stroke-width="1.5" stroke-linecap="round" stroke-linejoin="round"/>
</svg>
