<svg width="60" height="61" viewBox="0 0 60 61" fill="none" xmlns="http://www.w3.org/2000/svg">
<path d="M37.6749 5.51709C44.4499 5.51709 49.9249 8.19209 49.9999 14.9921V52.9421C49.9999 53.3671 49.8999 53.7921 49.6999 54.1671C49.3749 54.7671 48.8249 55.2171 48.1499 55.4171C47.4999 55.6171 46.7749 55.5171 46.1749 55.1671L29.9749 47.0671L13.7499 55.1671C13.3774 55.3646 12.9499 55.4921 12.5249 55.4921C11.1249 55.4921 9.99989 54.3421 9.99989 52.9421V14.9921C9.99989 8.19209 15.4999 5.51709 22.2499 5.51709H37.6749ZM39.3749 20.6171H20.5499C19.4749 20.6171 18.5999 21.4921 18.5999 22.5921C18.5999 23.6896 19.4749 24.5671 20.5499 24.5671H39.3749C40.4499 24.5671 41.3249 23.6896 41.3249 22.5921C41.3249 21.4921 40.4499 20.6171 39.3749 20.6171Z" fill="white"/>
</svg>
