<svg width="56" height="56" viewBox="0 0 56 56" fill="none" xmlns="http://www.w3.org/2000/svg">
<circle cx="28" cy="28" r="27.5" stroke="white"/>
<path d="M17.5 37.7499C17.4428 37.7499 17.3851 37.7433 17.3279 37.7302C16.9894 37.6496 16.75 37.3477 16.75 36.9999C16.75 30.1847 17.6121 24.5165 28 24.2587V18.9999C28 18.7018 28.1764 18.4323 28.4491 18.3129C28.7207 18.1942 29.0393 18.2456 29.2591 18.4492L39.0091 27.4492C39.1628 27.5904 39.25 27.7905 39.25 27.9999C39.25 28.2093 39.1628 28.4094 39.0091 28.5508L29.2591 37.5508C29.0401 37.7544 28.7215 37.8071 28.4491 37.6871C28.1764 37.5675 28 37.298 28 36.9999V31.7587C20.8742 31.9293 19.5595 34.5581 18.1709 37.3353C18.0421 37.5939 17.779 37.7499 17.5 37.7499ZM28.75 30.2499C29.1646 30.2499 29.5 30.5853 29.5 30.9999V35.2867L37.3941 27.9999L29.5 20.7131V24.9999C29.5 25.4145 29.1646 25.7499 28.75 25.7499C20.4648 25.7499 18.6807 28.9543 18.3299 34.0725C19.8833 31.9858 22.531 30.2499 28.75 30.2499Z" fill="white"/>
</svg>
