<svg width="32" height="32" viewBox="0 0 32 32" fill="none" xmlns="http://www.w3.org/2000/svg">
<path d="M16.7623 2.79944L25.6122 5.76871C26.6028 6.0995 27.2727 7.0095 27.278 8.02933L27.3344 16.8835C27.3519 19.5678 26.3733 22.171 24.5813 24.2106C23.7571 25.1468 22.7007 25.9509 21.3517 26.67L16.5945 29.213C16.4455 29.2915 16.2818 29.332 16.1167 29.3333C15.9516 29.3346 15.7864 29.2954 15.6388 29.2182L10.8373 26.734C9.47353 26.0267 8.40773 25.2344 7.57549 24.3113C5.75397 22.2926 4.74186 19.7011 4.72441 17.013L4.668 8.16531C4.66266 7.14417 5.3204 6.22763 6.30566 5.88377L15.122 2.80859C15.6455 2.62293 16.2294 2.61901 16.7623 2.79944ZM20.9944 12.2916C20.5984 11.9111 19.9608 11.9137 19.5702 12.2994L15.0788 16.7265L13.2398 14.9588C12.8438 14.5783 12.2076 14.5823 11.8156 14.968C11.425 15.3537 11.429 15.9734 11.825 16.3539L14.3794 18.8119C14.5781 19.0028 14.8358 19.097 15.0935 19.0944C15.3513 19.093 15.6077 18.9963 15.8036 18.8028L21.0024 13.6775C21.393 13.2918 21.389 12.672 20.9944 12.2916Z" fill="#FFB43A"/>
</svg>
