<svg width="60" height="61" viewBox="0 0 60 61" fill="none" xmlns="http://www.w3.org/2000/svg">
<path d="M48.7 32.8921H53.75V29.2921C53.75 24.1171 49.525 19.8921 44.35 19.8921H15.65C10.475 19.8921 6.25 24.1171 6.25 29.2921V38.417C8.225 36.617 10.875 35.5171 13.75 35.5171C19.975 35.5171 25 40.5671 25 46.7671C25 48.0921 24.775 49.3421 24.35 50.5171C23.675 52.4921 22.425 54.1921 20.85 55.5171H44.35C49.525 55.5171 53.75 51.2921 53.75 46.1171V43.1421H49C46.3 43.1421 43.825 41.1671 43.6 38.4671C43.45 36.8921 44.05 35.4171 45.1 34.3921C46.025 33.4421 47.3 32.8921 48.7 32.8921Z" fill="white"/>
<path d="M13.75 35.5171C10.875 35.5171 8.225 36.617 6.25 38.417C5.8 38.817 5.375 39.2421 5 39.7171C3.425 41.6421 2.5 44.0921 2.5 46.7671C2.5 52.9921 7.55 58.0171 13.75 58.0171C16.45 58.0171 18.9 57.0671 20.85 55.5171C22.425 54.1921 23.675 52.4921 24.35 50.5171C24.775 49.3421 25 48.0921 25 46.7671C25 40.5671 19.975 35.5171 13.75 35.5171ZM20.5 44.5921C20.5 45.3671 19.875 45.9671 19.125 45.9671C18.375 45.9671 17.75 45.3671 17.75 44.5921V44.3171C17.75 44.0171 17.525 43.7671 17.225 43.7671H11.575C11.85 44.2921 11.8 44.9421 11.35 45.3921C11.1 45.6421 10.75 45.7921 10.375 45.7921C10.025 45.7921 9.67501 45.6421 9.42501 45.3921L7.40002 43.3671C7.27502 43.2421 7.17499 43.0921 7.09999 42.9171C6.97499 42.5921 6.97499 42.217 7.09999 41.867C7.17499 41.717 7.27502 41.5421 7.40002 41.4171L9.42501 39.4171C9.95001 38.8671 10.825 38.8671 11.35 39.4171C11.8 39.8421 11.85 40.5171 11.575 41.0171H17.225C19.025 41.0171 20.5 42.4921 20.5 44.3171V44.5921ZM17.125 54.517C16.75 54.517 16.4 54.3921 16.15 54.1171C15.7 53.6921 15.65 53.0171 15.925 52.5171H10.275C8.475 52.5171 7.00001 51.042 7.00001 49.217V48.9421C7.00001 48.1671 7.62502 47.5671 8.37502 47.5671C9.12502 47.5671 9.74998 48.1671 9.74998 48.9421V49.217C9.74998 49.517 9.975 49.7671 10.275 49.7671H15.925C15.65 49.2421 15.7 48.5921 16.15 48.1421C16.675 47.6171 17.55 47.6171 18.075 48.1421L20.1 50.1671C20.225 50.2921 20.325 50.442 20.4 50.617C20.525 50.942 20.525 51.3171 20.4 51.6671C20.325 51.8171 20.225 51.9921 20.1 52.1171L18.075 54.1171C17.825 54.3921 17.475 54.517 17.125 54.517Z" fill="white"/>
<path d="M37.125 10.3922V19.8921H15.65C10.475 19.8921 6.25 24.1171 6.25 29.2921V20.1172C6.25 17.1422 8.07499 14.4921 10.85 13.4421L30.7 5.94208C33.8 4.79208 37.125 7.06715 37.125 10.3922Z" fill="white" fill-opacity="0.9"/>
<path opacity="0.5" d="M56.3999 35.442V40.5921C56.3999 41.9671 55.2999 43.092 53.8999 43.142H49C46.3 43.142 43.825 41.167 43.6 38.467C43.45 36.892 44.0499 35.417 45.0999 34.392C46.0249 33.442 47.2999 32.8921 48.6999 32.8921H53.8999C55.2999 32.9421 56.3999 34.067 56.3999 35.442Z" fill="white"/>
<path d="M35 32.3921H17.5C16.475 32.3921 15.625 31.5421 15.625 30.5171C15.625 29.4921 16.475 28.6421 17.5 28.6421H35C36.025 28.6421 36.875 29.4921 36.875 30.5171C36.875 31.5421 36.025 32.3921 35 32.3921Z" fill="#0C1F30"/>
</svg>
