<svg width="108" height="108" viewBox="0 0 108 108" fill="none" xmlns="http://www.w3.org/2000/svg">
<circle cx="54" cy="54" r="53" fill="#FEB528" stroke="white" stroke-width="2"/>
<path d="M29.648 65.48C27.088 65.48 25.136 64.76 23.792 63.32C22.448 61.848 21.776 59.752 21.776 57.032V31.4H27.056V57.416C27.056 58.568 27.28 59.4 27.728 59.912C28.208 60.424 28.88 60.68 29.744 60.68C30.608 60.68 31.264 60.424 31.712 59.912C32.192 59.4 32.432 58.568 32.432 57.416V31.4H37.52V57.032C37.52 59.752 36.848 61.848 35.504 63.32C34.16 64.76 32.208 65.48 29.648 65.48ZM41.2805 31.4H46.5605V65H41.2805V31.4ZM58.1949 65.48C55.6349 65.48 53.6829 64.76 52.3389 63.32C50.9949 61.848 50.3229 59.752 50.3229 57.032V31.4H55.6029V57.416C55.6029 58.568 55.8269 59.4 56.2749 59.912C56.7549 60.424 57.4269 60.68 58.2909 60.68C59.1549 60.68 59.8109 60.424 60.2589 59.912C60.7389 59.4 60.9789 58.568 60.9789 57.416V31.4H66.0669V57.032C66.0669 59.752 65.3949 61.848 64.0509 63.32C62.7069 64.76 60.7549 65.48 58.1949 65.48ZM74.4365 47.816L68.6285 31.4H74.1965L77.7485 42.248H77.8445L81.4925 31.4H86.4845L80.6765 47.816L86.7725 65H81.2045L77.3645 53.288H77.2685L73.3325 65H68.3405L74.4365 47.816Z" fill="white"/>
<path d="M23.312 81.18C22.352 81.18 21.626 80.91 21.134 80.37C20.642 79.818 20.396 79.032 20.396 78.012V77.292H22.268V78.156C22.268 78.972 22.61 79.38 23.294 79.38C23.63 79.38 23.882 79.284 24.05 79.092C24.23 78.888 24.32 78.564 24.32 78.12C24.32 77.592 24.2 77.13 23.96 76.734C23.72 76.326 23.276 75.84 22.628 75.276C21.812 74.556 21.242 73.908 20.918 73.332C20.594 72.744 20.432 72.084 20.432 71.352C20.432 70.356 20.684 69.588 21.188 69.048C21.692 68.496 22.424 68.22 23.384 68.22C24.332 68.22 25.046 68.496 25.526 69.048C26.018 69.588 26.264 70.368 26.264 71.388V71.91H24.392V71.262C24.392 70.83 24.308 70.518 24.14 70.326C23.972 70.122 23.726 70.02 23.402 70.02C22.742 70.02 22.412 70.422 22.412 71.226C22.412 71.682 22.532 72.108 22.772 72.504C23.024 72.9 23.474 73.38 24.122 73.944C24.95 74.664 25.52 75.318 25.832 75.906C26.144 76.494 26.3 77.184 26.3 77.976C26.3 79.008 26.042 79.8 25.526 80.352C25.022 80.904 24.284 81.18 23.312 81.18ZM34.9233 70.2H32.8533V68.4H38.9733V70.2H36.9033V81H34.9233V70.2ZM48.7519 81.18C47.7919 81.18 47.0599 80.91 46.5559 80.37C46.0519 79.818 45.7999 79.032 45.7999 78.012V68.4H47.7799V78.156C47.7799 78.588 47.8639 78.9 48.0319 79.092C48.2119 79.284 48.4639 79.38 48.7879 79.38C49.1119 79.38 49.3579 79.284 49.5259 79.092C49.7059 78.9 49.7959 78.588 49.7959 78.156V68.4H51.7039V78.012C51.7039 79.032 51.4519 79.818 50.9479 80.37C50.4439 80.91 49.7119 81.18 48.7519 81.18ZM59.0541 68.4H62.0781C63.0621 68.4 63.8001 68.664 64.2921 69.192C64.7841 69.72 65.0301 70.494 65.0301 71.514V77.886C65.0301 78.906 64.7841 79.68 64.2921 80.208C63.8001 80.736 63.0621 81 62.0781 81H59.0541V68.4ZM62.0421 79.2C62.3661 79.2 62.6121 79.104 62.7801 78.912C62.9601 78.72 63.0501 78.408 63.0501 77.976V71.424C63.0501 70.992 62.9601 70.68 62.7801 70.488C62.6121 70.296 62.3661 70.2 62.0421 70.2H61.0341V79.2H62.0421ZM72.3066 68.4H74.2866V81H72.3066V68.4ZM84.5715 81.18C83.5995 81.18 82.8555 80.904 82.3395 80.352C81.8235 79.8 81.5655 79.02 81.5655 78.012V71.388C81.5655 70.38 81.8235 69.6 82.3395 69.048C82.8555 68.496 83.5995 68.22 84.5715 68.22C85.5435 68.22 86.2875 68.496 86.8035 69.048C87.3195 69.6 87.5775 70.38 87.5775 71.388V78.012C87.5775 79.02 87.3195 79.8 86.8035 80.352C86.2875 80.904 85.5435 81.18 84.5715 81.18ZM84.5715 79.38C85.2555 79.38 85.5975 78.966 85.5975 78.138V71.262C85.5975 70.434 85.2555 70.02 84.5715 70.02C83.8875 70.02 83.5455 70.434 83.5455 71.262V78.138C83.5455 78.966 83.8875 79.38 84.5715 79.38Z" fill="white"/>
</svg>
